<?xml version="1.0" standalone="yes"?>
<svg xmlns="http://www.w3.org/2000/svg" width="1200" height="282">
<path style="fill:#010101; stroke:none;" d="M0 0L0 124L1 124C2.30451 60.7977 69.1873 1.04074 131 1C120.496 -3.40756 102.42 0 91 0L0 0z"/>
<path style="fill:#01ab13; stroke:none;" d="M121 1C118.597 3.267 113.479 3.23846 110.199 3.99536C100.694 6.18881 80.349 9.00476 75 18C69.2898 18.0952 62.6583 23.313 58.0147 26.5201C45.1942 35.3744 33.1693 47.9539 24.5131 60.8843C21.437 65.4793 17.2711 70.3786 17 76L14 82C10.2308 84.6697 8.44795 89.5062 9 94C3.3089 98.5368 1.89551 113.208 1.28241 120.258C-0.575341 141.623 -0.947192 163.425 6.36883 184C8.21096 189.181 10.4123 198.856 15 202L16 208L18 208C18.8527 217.645 37.0749 242.16 47 244C49.6692 252.15 66.9162 262.854 75 264L79 266L79 268L103 273L113 266L115 267C123.785 253.548 128.764 237.436 113.91 225.539C107.46 220.373 98.8259 218.914 93 213L91 214C88.1791 208.388 81.8479 205.316 77.598 200.803C69.9855 192.72 63.8945 183.118 59.3727 172.985C51.807 156.032 51.27 133.945 56.8634 116.385C59.2605 108.86 65.4601 100.667 66 93L94 67.3765L112 57C116.03 59.0149 128.736 54.3193 129 53L151.996 54.0687L167 56C170.109 60.14 186.922 67.8797 192 68C195.193 74.3055 206.56 84.9154 213 88L226.69 120.975L228 161L218.576 181.985L197 210C192.156 210.615 188.701 214.215 184.576 216.701C176.776 221.4 161.989 224.777 162 236C154.153 237.238 160.365 258.092 163.264 261.981C172.287 274.087 182.346 270.963 195 272L202 269L203 266C208.437 265.829 216.332 261.828 219 257C222.598 256.469 226.138 254.71 227 251L243 240L242 238C251.595 236.401 257.104 219.995 262 213C274.157 195.633 278.804 173.566 281 156C281.24 154.079 283.318 149.179 283 146C282.433 140.327 281.309 133.223 282 127C282.235 124.889 281.17 123.528 281 122C280.432 116.891 278.834 94.1668 273 93L260 63C248.611 52.4467 240.776 39.3528 228 29.5941C208.4 14.6234 184.124 3.97772 159.424 1.33487C146.582 -0.0392151 133.563 2.36749 121 1z"/>
<path style="fill:#01ab16; stroke:none;" d="M132 0L133 1L132 0M134 0L135 1L134 0M140 0L140 1L143 1L140 0M147 0L147 1L150 1L147 0z"/>
<path style="fill:#010101; stroke:none;" d="M151 0L151 1C247.602 1.06369 307.289 112.131 271.421 196C260.33 221.935 241.498 243.533 218 258.997C209.324 264.707 198.579 271.726 188 272.826C168.509 274.851 152.585 254.136 160.532 236C165.739 224.117 178.039 221.135 188 214.655C201.098 206.136 211.931 194.93 219.215 181C252.659 117.04 194.705 42.8436 125 55.0841C65.6008 65.5149 34.3787 136.172 66.6952 187C73.5284 197.747 82.2582 206.983 93 213.91C102.183 219.832 112.793 222.614 119.351 232C129.659 246.754 120.494 267.058 104 271.956C89.7823 276.178 74.3095 265.489 63 257.996C31.4431 237.088 1.81462 197.467 1 158L0 158L0 282L1200 282L1200 0L151 0z"/>
<path style="fill:#01ab16; stroke:none;" d="M123 1L124 2L123 1M125 1L126 2L125 1M127 1L128 2L127 1M154 1L155 2L154 1M159 1L160 2L159 1M115.667 2.33334L116.333 2.66666L115.667 2.33334M118 2L119 3L118 2M120 2L121 3L120 2M165 2L166 3L165 2M110.667 3.33334L111.333 3.66666L110.667 3.33334M113 3L114 4L113 3M171 3L172 4L171 3M106.667 4.33334L107.333 4.66666L106.667 4.33334M109 4L110 5L109 4M174 4L175 5L174 4M176 4L177 5L176 4M102.667 5.33334L103.333 5.66666L102.667 5.33334M179 5L180 6L179 5M182.667 6.33334L183.333 6.66666L182.667 6.33334M97 7L98 8L97 7M186 7L187 8L186 7M189 8L190 9L189 8M88 10L89 11L88 10M194 10L195 11L194 10M86 11L87 12L86 11M83 12L84 13L83 12M198.667 12.3333L199.333 12.6667L198.667 12.3333M81 13L82 14L81 13M200 13L201 14L200 13z"/>
<path style="fill:#01ff01; stroke:none;" d="M78 14L79 15L78 14z"/>
<path style="fill:#01ab16; stroke:none;" d="M79 14L80 15L79 14M203 14L204 15L203 14M205 15L206 16L205 15M207 16L208 17L207 16M74 17L75 18L74 17M209 17L210 18L209 17M69.6667 19.3333L70.3333 19.6667L69.6667 19.3333z"/>
<path style="fill:#018f07; stroke:none;" d="M67 20L68 21L67 20z"/>
<path style="fill:#01ab16; stroke:none;" d="M214 20L215 21L214 20M66 21L67 22L66 21M215 21L216 22L215 21z"/>
<path style="fill:#018f07; stroke:none;" d="M64 22L65 23L64 22z"/>
<path style="fill:#01ab16; stroke:none;" d="M219 23L220 24L219 23M61 24L62 25L61 24M222 25L223 26L222 25M223 26L224 27L223 26M224 27L225 28L224 27z"/>
<path style="fill:#018f07; stroke:none;" d="M225 27L226 28L225 27z"/>
<path style="fill:#01ab16; stroke:none;" d="M226 28L227 29L226 28M52 31L53 32L52 31M230 31L231 32L230 31M51 32L52 33L51 32M231 32L232 33L231 32M232 33L233 34L232 33M48 34L49 35L48 34M233 34L234 35L233 34M234 35L235 36L234 35z"/>
<path style="fill:#018f07; stroke:none;" d="M236 36L237 37L236 36z"/>
<path style="fill:#01ab16; stroke:none;" d="M237 37L238 38L237 37M44 38L45 39L44 38M43 39L44 40L43 39M42 40L43 41L42 40M240 40L241 41L240 40M242 42L243 43L242 42M245 45L246 46L245 45M36 46L37 47L36 46M246.333 46.6667L246.667 47.3333L246.333 46.6667M35 47L36 48L35 47z"/>
<path style="fill:#01ff01; stroke:none;" d="M247 47L248 48L247 47z"/>
<path style="fill:#018f07; stroke:none;" d="M32 50L33 51L32 50z"/>
<path style="fill:#01ff01; stroke:none;" d="M31 51L32 52L31 51z"/>
<path style="fill:#01ab16; stroke:none;" d="M31 52L32 53L31 52M129 53L130 54L129 53M132 53L133 54L132 53M134 53L135 54L134 53M137 53L137 54L140 54L137 53M141 53L141 54L144 54L141 53M145.667 53.3333L146.333 53.6667L145.667 53.3333M127 54L128 55L127 54M154.667 54.3333L155.333 54.6667L154.667 54.3333M157 54L158 55L157 54M28 55L29 56L28 55M121 55L122 56L121 55M117.667 56.3333L118.333 56.6667L117.667 56.3333z"/>
<path style="fill:#018f07; stroke:none;" d="M163 56L164 57L163 56z"/>
<path style="fill:#01ab16; stroke:none;" d="M164 56L165 57L164 56M166 56L167 57L166 56M112 57L113 58L112 57M255 57L256 58L255 57M26 58L27 59L26 58z"/>
<path style="fill:#018f07; stroke:none;" d="M109 59L110 60L109 59z"/>
<path style="fill:#01ab16; stroke:none;" d="M256 59L257 60L256 59M175 60L176 61L175 60M257.333 60.6667L257.667 61.3333L257.333 60.6667M24 61L25 62L24 61z"/>
<path style="fill:#018f07; stroke:none;" d="M177 61L178 62L177 61z"/>
<path style="fill:#01ff01; stroke:none;" d="M258 61L259 62L258 61z"/>
<path style="fill:#01ab16; stroke:none;" d="M101.667 62.3333L102.333 62.6667L101.667 62.3333M100 63L101 64L100 63M182.667 63.3333L183.333 63.6667L182.667 63.3333M22 64L23 65L22 64M98 64L99 65L98 64z"/>
<path style="fill:#018f07; stroke:none;" d="M183 64L184 65L183 64z"/>
<path style="fill:#01ab16; stroke:none;" d="M259 64L260 65L259 64M21 65L22 66L21 65M260 65L261 66L260 65M94 66L95 67L94 66z"/>
<path style="fill:#01ff01; stroke:none;" d="M95 66L96 67L95 66z"/>
<path style="fill:#01ab16; stroke:none;" d="M261 66L262 67L261 66M20 67L21 68L20 67M93 67L94 68L93 67z"/>
<path style="fill:#018f07; stroke:none;" d="M19 68L20 69L19 68z"/>
<path style="fill:#01ab16; stroke:none;" d="M90 68L91 69L90 68M191 68L192 69L191 68M262 68L263 69L262 68z"/>
<path style="fill:#018f07; stroke:none;" d="M191 69L192 70L191 69z"/>
<path style="fill:#01ff01; stroke:none;" d="M89 70L90 71L89 70z"/>
<path style="fill:#01ab16; stroke:none;" d="M194 70L195 71L194 70M17 72L18 73L17 72M86 72L87 73L86 72z"/>
<path style="fill:#01ff01; stroke:none;" d="M195 72L196 73L195 72z"/>
<path style="fill:#01ab16; stroke:none;" d="M83 74L84 75L83 74M16 75L17 76L16 75M266.333 75.6667L266.667 76.3333L266.333 75.6667M201 77L202 78L201 77M267 77L268 78L267 77M202 78L204 80L204 78L202 78z"/>
<path style="fill:#018f07; stroke:none;" d="M13 79L14 80L13 79z"/>
<path style="fill:#01ab16; stroke:none;" d="M204 80L205 81L204 80M13 81L14 82L13 81M269 81L270 82L269 81M207 83L208 84L207 83M270 83L271 84L270 83M11 84L12 85L11 84z"/>
<path style="fill:#018f07; stroke:none;" d="M210 87L211 88L210 87z"/>
<path style="fill:#01ff01; stroke:none;" d="M272 87L273 88L272 87z"/>
<path style="fill:#01ab16; stroke:none;" d="M70 88L71 89L70 88M133 88L134 89L133 88z"/>
<path style="fill:#01ab13; stroke:none;" d="M125 92C111.198 91.7014 91.8603 111.389 92 125C88.2309 128.089 88.0015 136.329 88.0015 141C88.0015 159.545 98.107 170.613 109 184L118 187C120.953 191.142 126.979 191.835 131.715 192.857C145.335 195.798 161.424 192.796 172.676 184.291C201.73 162.329 201.082 117.924 171.331 96.9097C162.531 90.6938 133.321 80.7945 125 92z"/>
<path style="fill:#01ab16; stroke:none;" d="M141.667 88.3333L142.333 88.6667L141.667 88.3333M147.667 88.3333L148.333 88.6667L147.667 88.3333M211.667 88.3333L212.333 88.6667L211.667 88.3333M272 88L273 89L272 88M129 89L130 90L129 89z"/>
<path style="fill:#018f07; stroke:none;" d="M154 89L155 90L154 89z"/>
<path style="fill:#01ab16; stroke:none;" d="M68 90L69 91L68 90z"/>
<path style="fill:#018f07; stroke:none;" d="M124 90L125 91L124 90z"/>
<path style="fill:#01ab16; stroke:none;" d="M123.667 91.3333L124.333 91.6667L123.667 91.3333M160 91L161 92L160 91M213 91L214 92L213 91M119.667 92.3333L120.333 92.6667L119.667 92.3333M161.667 92.3333L162.333 92.6667L161.667 92.3333z"/>
<path style="fill:#01ff01; stroke:none;" d="M163 92L164 93L163 92z"/>
<path style="fill:#01ab16; stroke:none;" d="M273 92L274 93L273 92M8 93L9 94L8 93M66.6667 93.3333L67.3333 93.6667L66.6667 93.3333M117 93L118 94L117 93M115.667 94.3333L116.333 94.6667L115.667 94.3333z"/>
<path style="fill:#018f07; stroke:none;" d="M167 94L168 95L167 94z"/>
<path style="fill:#01ab16; stroke:none;" d="M215 94L216 95L215 94M274 94L275 95L274 94M114 95L115 96L114 95M216 95L217 96L216 95M65 96L66 97L65 96M112.667 96.3333L113.333 96.6667L112.667 96.3333M275 96L276 97L275 96M6 97L7 98L6 97z"/>
<path style="fill:#018f07; stroke:none;" d="M110 97L111 98L110 97z"/>
<path style="fill:#01ab16; stroke:none;" d="M171 97L172 98L171 97M217 97L218 98L217 97M64 98L65 99L64 98M109.667 98.3333L110.333 98.6667L109.667 98.3333M218 98L219 99L218 98M108 99L109 100L108 99M174 99L175 100L174 99z"/>
<path style="fill:#018f07; stroke:none;" d="M63 100L64 101L63 100z"/>
<path style="fill:#01ab16; stroke:none;" d="M62 101L63 102L62 101z"/>
<path style="fill:#01ff01; stroke:none;" d="M105 101L106 102L105 101z"/>
<path style="fill:#01ab16; stroke:none;" d="M176 101L177 102L176 101M219 101L220 102L219 101z"/>
<path style="fill:#01ff01; stroke:none;" d="M62 102L63 103L62 102z"/>
<path style="fill:#01ab16; stroke:none;" d="M177 102L178 103L177 102M220.333 102.667L220.667 103.333L220.333 102.667M103 103L102 106L103 103z"/>
<path style="fill:#018f07; stroke:none;" d="M102 104L103 105L102 104z"/>
<path style="fill:#01ab16; stroke:none;" d="M179 104L180 105L179 104M4 105L5 106L4 105z"/>
<path style="fill:#018f07; stroke:none;" d="M101 105L102 106L101 105z"/>
<path style="fill:#01ab16; stroke:none;" d="M221 105L222 106L221 105M60 106L61 107L60 106z"/>
<path style="fill:#018f07; stroke:none;" d="M3 107L4 108L3 107z"/>
<path style="fill:#01ab16; stroke:none;" d="M59 107L60 108L59 107M182 107L183 108L182 107M99 108L100 109L99 108M183 108L184 109L183 108M3 109L4 110L3 109M98 109L99 110L98 109z"/>
<path style="fill:#018f07; stroke:none;" d="M97 110L98 111L97 110z"/>
<path style="fill:#01ff01; stroke:none;" d="M2 111L3 112L2 111z"/>
<path style="fill:#01ab16; stroke:none;" d="M185 111L186 112L185 111M279 111L280 112L279 111M2 112L3 113L2 112M96 112L97 113L96 112M186 112L187 113L186 112M224 113L225 114L224 113M2 114L3 115L2 114M57 114L58 115L57 114M225 115L226 116L225 115M56 116L57 117L56 116M93.3333 117.667L93.6667 118.333L93.3333 117.667M189 118L190 119L189 118M1 119L2 120L1 119M92.3333 119.667L92.6667 120.333L92.3333 119.667M226.333 119.667L226.667 120.333L226.333 119.667M55 120L56 121L55 120M190 120L191 121L190 120M1 121L2 122L1 121M91 122L92 123L91 122M281 122L282 123L281 122M0 124L1 125L0 124z"/>
<path style="fill:#01ff01; stroke:none;" d="M90 124L91 125L90 124z"/>
<path style="fill:#01ab16; stroke:none;" d="M91 124L92 125L91 124M227 124L228 125L227 124M54 126L55 127L54 126M192 126L193 127L192 126z"/>
<path style="fill:#01ff01; stroke:none;" d="M54 127L55 128L54 127z"/>
<path style="fill:#01ab16; stroke:none;" d="M281 127L282 128L281 127M89 128L90 129L89 128M193.333 129.667L193.667 130.333L193.333 129.667M89 130L89 133L90 133L89 130M53 132L54 133L53 132M282 132L283 133L282 132z"/>
<path style="fill:#018f07; stroke:none;" d="M88 133L89 134L88 133z"/>
<path style="fill:#01ab16; stroke:none;" d="M193 133L194 134L193 133M53 134L54 135L53 134M282 134L283 135L282 134M194 135L194 147L195 147L194 135M53 136L54 137L53 136M282 136L283 137L282 136z"/>
<path style="fill:#018f07; stroke:none;" d="M53 137L54 138L53 137z"/>
<path style="fill:#01ff01; stroke:none;" d="M53 138L54 139L53 138z"/>
<path style="fill:#01ab16; stroke:none;" d="M282 138L283 139L282 138M282 140L283 141L282 140M229 141L230 142L229 141z"/>
<path style="fill:#01ff01; stroke:none;" d="M53 142L54 143L53 142z"/>
<path style="fill:#01ab16; stroke:none;" d="M53 143L54 144L53 143M282 143L283 144L282 143M229 145L230 146L229 145M282 145L283 146L282 145M53 146L53 150L54 150L53 146M0.333333 147.667L0.666667 148.333L0.333333 147.667M193.333 147.667L193.667 148.333L193.333 147.667z"/>
<path style="fill:#018f07; stroke:none;" d="M88 148L89 149L88 148z"/>
<path style="fill:#01ab16; stroke:none;" d="M89 149L89 152L90 152L89 149M282 149L283 150L282 149z"/>
<path style="fill:#01ff01; stroke:none;" d="M282 150L283 151L282 150z"/>
<path style="fill:#01ab16; stroke:none;" d="M193.333 151.667L193.667 152.333L193.333 151.667M228 151L229 152L228 151M0.333333 153.667L0.666667 154.333L0.333333 153.667M89 153L90 154L89 153M228 154L229 155L228 154M54 155L55 156L54 155z"/>
<path style="fill:#018f07; stroke:none;" d="M192 156L193 157L192 156z"/>
<path style="fill:#01ab16; stroke:none;" d="M227.333 156.667L227.667 157.333L227.333 156.667M281 156L282 157L281 156z"/>
<path style="fill:#01ff01; stroke:none;" d="M90 157L91 158L90 157z"/>
<path style="fill:#01ab16; stroke:none;" d="M91.3333 158.667L91.6667 159.333L91.3333 158.667M281 158L282 159L281 158M227 160L228 161L227 160M1 161L1 164L2 164L1 161M55 161L56 162L55 161M190 161L191 162L190 161M92 162L93 163L92 162M280 162L281 163L280 162z"/>
<path style="fill:#018f07; stroke:none;" d="M56 163L57 164L56 163z"/>
<path style="fill:#01ab16; stroke:none;" d="M189 163L190 164L189 163z"/>
<path style="fill:#01ff01; stroke:none;" d="M1 164L2 165L1 164z"/>
<path style="fill:#01ab16; stroke:none;" d="M93 164L94 165L93 164M56 165L57 166L56 165M280 165L281 166L280 165M94 166L95 167L94 166z"/>
<path style="fill:#018f07; stroke:none;" d="M280 166L281 167L280 166z"/>
<path style="fill:#01ab16; stroke:none;" d="M57 167L58 168L57 167M186 168L187 169L186 168M224.333 168.667L224.667 169.333L224.333 168.667M2 169L3 170L2 169M96 169L97 170L96 169z"/>
<path style="fill:#018f07; stroke:none;" d="M186 169L187 170L186 169z"/>
<path style="fill:#01ab16; stroke:none;" d="M58.3333 170.667L58.6667 171.333L58.3333 170.667M279 170L280 171L279 170z"/>
<path style="fill:#018f07; stroke:none;" d="M97 171L98 172L97 171M279 171L280 172L279 171z"/>
<path style="fill:#01ff01; stroke:none;" d="M59 172L60 173L59 172z"/>
<path style="fill:#01ab16; stroke:none;" d="M98 172L99 173L98 172M59 173L60 174L59 173M99 173L100 174L99 173M183 173L184 174L183 173z"/>
<path style="fill:#018f07; stroke:none;" d="M222 173L223 174L222 173z"/>
<path style="fill:#01ab16; stroke:none;" d="M222 174L223 175L222 174M4 175L5 176L4 175M60 175L61 176L60 175M101 175L102 176L101 175z"/>
<path style="fill:#01ff01; stroke:none;" d="M101 176L102 177L101 176z"/>
<path style="fill:#01ab16; stroke:none;" d="M221 176L222 177L221 176z"/>
<path style="fill:#018f07; stroke:none;" d="M102 177L103 178L102 177z"/>
<path style="fill:#01ab16; stroke:none;" d="M103.333 177.667L103.667 178.333L103.333 177.667M61 178L62 179L61 178M277 178L278 179L277 178M62 179L63 180L62 179M177 179L178 180L177 179z"/>
<path style="fill:#01ff01; stroke:none;" d="M277 179L278 180L277 179M105 180L106 181L105 180z"/>
<path style="fill:#01ab16; stroke:none;" d="M176 180L177 181L176 180M219 180L220 181L219 180M276 180L277 181L276 180M107 181L108 182L107 181M108 182L109 183L108 182M174 182L175 183L174 182M218 182L219 183L218 182M6.33333 183.667L6.66667 184.333L6.33333 183.667M110 183L111 184L110 183z"/>
<path style="fill:#018f07; stroke:none;" d="M110 184L111 185L110 184z"/>
<path style="fill:#01ab16; stroke:none;" d="M112 185L113 186L112 185M216.333 185.667L216.667 186.333L216.333 185.667z"/>
<path style="fill:#018f07; stroke:none;" d="M66 186L67 187L66 186z"/>
<path style="fill:#01ab16; stroke:none;" d="M114 186L115 187L114 186M7 187L8 188L7 187M115 187L116 188L115 187M117.333 187.667L117.667 188.333L117.333 187.667M166 187L167 188L166 187z"/>
<path style="fill:#01ff01; stroke:none;" d="M167 187L168 188L167 187z"/>
<path style="fill:#01ab16; stroke:none;" d="M67 188L68 189L67 188z"/>
<path style="fill:#01ff01; stroke:none;" d="M214 188L215 189L214 188z"/>
<path style="fill:#01ab16; stroke:none;" d="M274 188L275 189L274 188z"/>
<path style="fill:#01ff01; stroke:none;" d="M68 189L69 190L68 189z"/>
<path style="fill:#01ab16; stroke:none;" d="M119.667 189.333L120.333 189.667L119.667 189.333M214 189L215 190L214 189M123 190L124 191L123 190M160 190L161 191L160 190M273 190L274 191L273 190M69 191L70 192L69 191z"/>
<path style="fill:#018f07; stroke:none;" d="M124 191L125 192L124 191z"/>
<path style="fill:#01ab16; stroke:none;" d="M125 191L126 192L125 191M156 191L157 192L156 191z"/>
<path style="fill:#018f07; stroke:none;" d="M212 191L213 192L212 191M273 191L274 192L273 191z"/>
<path style="fill:#01ab16; stroke:none;" d="M9 192L10 193L9 192M70 192L71 193L70 192M128.667 192.333L129.333 192.667L128.667 192.333M132 192L133 193L132 192M10.3333 193.667L10.6667 194.333L10.3333 193.667M133 193L134 194L133 193M141 193L141 194L144 194L141 193M146 193L147 194L146 193M148 193L149 194L148 193M210 194L209 196L211 196L210 194M271.333 194.667L271.667 195.333L271.333 194.667M11 196L11 198L13 198L11 196M73 196L74 197L73 196z"/>
<path style="fill:#01ff01; stroke:none;" d="M208 196L209 197L208 196z"/>
<path style="fill:#01ab16; stroke:none;" d="M74 197L75 198L74 197M208 197L209 198L208 197M270 198L271 199L270 198M77 201L78 202L77 201M14 202L15 203L14 202M268 202L269 203L268 202M202 203L203 204L202 203M267 204L268 205L267 204z"/>
<path style="fill:#018f07; stroke:none;" d="M82 205L83 206L82 205z"/>
<path style="fill:#01ab16; stroke:none;" d="M16 206L17 207L16 206M83 206L84 207L83 206M265.333 207.667L265.667 208.333L265.333 207.667M17 208L18 209L17 208z"/>
<path style="fill:#018f07; stroke:none;" d="M196 208L197 209L196 208z"/>
<path style="fill:#01ab16; stroke:none;" d="M196 209L197 210L196 209M264 209L265 210L264 209z"/>
<path style="fill:#01ff01; stroke:none;" d="M264 210L265 211L264 210z"/>
<path style="fill:#01ab16; stroke:none;" d="M89 211L90 212L89 211z"/>
<path style="fill:#01ff01; stroke:none;" d="M192 211L193 212L192 211z"/>
<path style="fill:#01ab16; stroke:none;" d="M262.333 212.667L262.667 213.333L262.333 212.667M91 213L92 214L91 213z"/>
<path style="fill:#01ff01; stroke:none;" d="M189 213L190 214L189 213z"/>
<path style="fill:#01ab16; stroke:none;" d="M20 214L21 215L20 214M188 214L189 215L188 214M261 214L262 215L261 214M21 215L22 216L21 215M94.6667 215.333L95.3333 215.667L94.6667 215.333z"/>
<path style="fill:#018f07; stroke:none;" d="M261 215L262 216L261 215z"/>
<path style="fill:#01ab16; stroke:none;" d="M97 216L98 217L97 216z"/>
<path style="fill:#01ff01; stroke:none;" d="M99 217L100 218L99 217z"/>
<path style="fill:#01ab16; stroke:none;" d="M183.667 217.333L184.333 217.667L183.667 217.333M100 218L101 219L100 218z"/>
<path style="fill:#018f07; stroke:none;" d="M259 218L260 219L259 218z"/>
<path style="fill:#01ab16; stroke:none;" d="M102 219L103 220L102 219M258 219L259 220L258 219M177 220L178 221L177 220M25 221L26 222L25 221z"/>
<path style="fill:#018f07; stroke:none;" d="M257 221L258 222L257 221z"/>
<path style="fill:#01ab16; stroke:none;" d="M108.667 222.333L109.333 222.667L108.667 222.333z"/>
<path style="fill:#01ff01; stroke:none;" d="M172 222L173 223L172 222z"/>
<path style="fill:#01ab16; stroke:none;" d="M173 222L174 223L173 222z"/>
<path style="fill:#018f07; stroke:none;" d="M111 223L112 224L111 223z"/>
<path style="fill:#01ab16; stroke:none;" d="M112 224L113 225L112 224M169 224L170 225L169 224M28 225L29 226L28 225M254 225L255 226L254 225M252 227L253 228L252 227M165 228L166 229L165 228M117 229L118 230L117 229z"/>
<path style="fill:#01ff01; stroke:none;" d="M251 229L252 230L251 229z"/>
<path style="fill:#01ab16; stroke:none;" d="M32 230L33 231L32 230M164 230L165 231L164 230M250 230L251 231L250 230M33 231L34 232L33 231M119 231L120 232L119 231M248 232L249 233L248 232M35 234L36 235L35 234M161.333 234.667L161.667 235.333L161.333 234.667M121 235L122 236L121 235M37 236L38 237L37 236M159 238L160 239L159 238M242 238L243 239L242 238z"/>
<path style="fill:#01ff01; stroke:none;" d="M243 238L244 239L243 238z"/>
<path style="fill:#01ab16; stroke:none;" d="M40 239L41 240L40 239M122 239L123 240L122 239M159 240L160 241L159 240z"/>
<path style="fill:#018f07; stroke:none;" d="M241 240L242 241L241 240z"/>
<path style="fill:#01ab16; stroke:none;" d="M42 241L43 242L42 241z"/>
<path style="fill:#018f07; stroke:none;" d="M240 241L241 242L240 241z"/>
<path style="fill:#01ab16; stroke:none;" d="M43 242L44 243L43 242M238 242L239 243L238 242z"/>
<path style="fill:#01ff01; stroke:none;" d="M239 242L240 243L239 242z"/>
<path style="fill:#01ab16; stroke:none;" d="M44 243L45 244L44 243M158.333 243.667L158.667 244.333L158.333 243.667M46.3333 244.667L46.6667 245.333L46.3333 244.667M236 244L237 245L236 244M158 246L159 247L158 246M49 247L50 248L49 247M233 247L234 248L233 247M158 248L159 249L158 248z"/>
<path style="fill:#018f07; stroke:none;" d="M158 249L159 250L158 249M231 249L232 250L231 249M123 250L124 251L123 250M53 251L54 252L53 251z"/>
<path style="fill:#01ab16; stroke:none;" d="M227.667 251.333L228.333 251.667L227.667 251.333M55 252L56 253L55 252M57 253L58 254L57 253z"/>
<path style="fill:#01ff01; stroke:none;" d="M226 253L227 254L226 253z"/>
<path style="fill:#01ab16; stroke:none;" d="M122 254L123 255L122 254z"/>
<path style="fill:#01ff01; stroke:none;" d="M159 254L160 255L159 254z"/>
<path style="fill:#01ab16; stroke:none;" d="M224 254L225 255L224 254M223 255L224 256L223 255M62 257L63 258L62 257M219 257L220 258L219 257M63 258L64 259L63 258M120 258L121 259L120 258M65 259L66 260L65 259M66 260L67 261L66 260M119 260L120 261L119 260M68.6667 261.333L69.3333 261.667L68.6667 261.333M70 262L71 263L70 262z"/>
<path style="fill:#018f07; stroke:none;" d="M118 262L119 263L118 262z"/>
<path style="fill:#01ab16; stroke:none;" d="M212 262L213 263L212 262M71 263L72 264L71 263M117 263L118 264L117 263z"/>
<path style="fill:#018f07; stroke:none;" d="M164 263L165 264L164 263z"/>
<path style="fill:#01ab16; stroke:none;" d="M209.667 263.333L210.333 263.667L209.667 263.333M74 264L75 265L74 264M116 264L117 265L116 264M165 264L166 265L165 264M208 264L209 265L208 264M115 265L116 266L115 265z"/>
<path style="fill:#018f07; stroke:none;" d="M207 265L208 266L207 265z"/>
<path style="fill:#01ab16; stroke:none;" d="M78 266L79 267L78 266M113 266L114 267L113 266M167 266L168 267L167 266M202 268L205 267L202 268M80 267L81 268L80 267z"/>
<path style="fill:#018f07; stroke:none;" d="M113 267L114 268L113 267M203 267L204 268L203 267z"/>
<path style="fill:#01ab16; stroke:none;" d="M81 268L82 269L81 268M200 268L201 269L200 268M83 269L84 270L83 269z"/>
<path style="fill:#01ff01; stroke:none;" d="M171 269L172 270L171 269z"/>
<path style="fill:#01ab16; stroke:none;" d="M198 269L199 270L198 269z"/>
<path style="fill:#018f07; stroke:none;" d="M173 270L174 271L173 270z"/>
<path style="fill:#01ab16; stroke:none;" d="M195.667 270.333L196.333 270.667L195.667 270.333M103 271L104 272L103 271M105 271L106 272L105 271M192 271L193 272L192 271M91 272L92 273L91 272M98 272L99 273L98 272M100.667 272.333L101.333 272.667L100.667 272.333M180.667 272.333L181.333 272.667L180.667 272.333M186 272L187 273L186 272M188 272L188 273L191 273L188 272z"/>
</svg>
