<?xml version="1.0" standalone="yes"?>
<svg xmlns="http://www.w3.org/2000/svg" width="1000" height="300">
<path style="fill:#f2f6f2; stroke:none;" d="M0 0L0 300L1000 300L1000 0L0 0z"/>
<path style="fill:#a5d89d; stroke:none;" d="M82 55L103 56L103 55L97 55L96 12L120 11C120 14.512 118.693 21.3717 121.028 24.2577C123.232 26.9822 128.938 25.9998 132 26C142.051 26.0006 150.387 26.6986 157 18C153.331 18 155 4.53619 155 1L138 1.83951L120.41 9.81174L103 10L83.0278 12.6034L82 24L82 55z"/>
<path style="fill:#a0a09e; stroke:none;" d="M156 1L156 18L157 18L156 1z"/>
<path style="fill:#464846; stroke:none;" d="M157 1C157 10.8625 158.933 22.6501 147 26L139 47L131 46C135.14 50.8512 136.827 49.4869 136 57L88 57L71.0278 58.6034L70 73L70 111L70 245L70 279L71.0278 292.397L82 294L114 294L204 294L250 293L256 296L255 293L261 292L261 296L264 296L264 290L267 291L266 296L269 296L270 288L271 288L272 296L274 296L274 287L278 288L281 285L281 296L282 296C282 290.781 281.225 285.999 285 282L285 296L287 296C287 290.103 285.71 283.544 290 279L290 296L293 296C293 286.287 290.546 277.421 300 272L299 296L304 296L304.938 267.001L321 237L365 237L365 236L323 236L323 231L363 232L363 231C353.082 231 324.38 236.291 325 223L359 224C355.89 216.263 333.428 220 326 220L326 57L268 57L268 47L258 47L250 28C239.02 20.2654 238 13.5265 238 1L236 1L236 16L232 14L233 1L231 1L231 13L230 13L230 1L227 1L227 11L226 11L226 1L224 1L224 9L222 9L222 1L221 1L218 8C218 4.63736 218.716 1.79623 215 1L216 5L210 5L211 1L205 1L205 4L192 4L192 1L187 1C185.574 5.6492 182.426 5.64917 181 1L179 1L180 7L177 8L176 1L175 1L175 9L173 9L173 1L171 1L171 11L170 11L170 1L167 1L167 13L166 13L166 1L164 1L165 14L160 16L160 1L157 1z"/>
<path style="fill:#a0a09e; stroke:none;" d="M160 1L160 16L165 14L165 13L162 14L162 1L160 1z"/>
<path style="fill:#a5d89d; stroke:none;" d="M162 1L164 14L162 1z"/>
<path style="fill:#a0a09e; stroke:none;" d="M163 1L163 12L164 12L163 1M166 1L166 13L167 13L166 1M170 1L170 11L171 11L170 1M173 1L173 9L175 9L175 1L173 1M176 1C176.114 4.48993 176.091 7.06989 180 7L179 1L178 1L178 7L177 7L176 1z"/>
<path style="fill:#a5d89d; stroke:none;" d="M177 1L177 7L178 7L177 1z"/>
<path style="fill:#a0a09e; stroke:none;" d="M181 1C181.898 6.37888 186.102 6.37885 187 1L184 1L184 5L182 5L181 1z"/>
<path style="fill:#a5d89d; stroke:none;" d="M182 1L182 4L184 4L184 1L182 1z"/>
<path style="fill:#a0a09e; stroke:none;" d="M192 1L192 4L193 4L192 1z"/>
<path style="fill:#a5d89d; stroke:none;" d="M194 1L194 2L203 2L194 1z"/>
<path style="fill:#a0a09e; stroke:none;" d="M204 1L204 4L205 4L204 1M211 1L210 5L216 5L216 4L213 5L213 1L211 1z"/>
<path style="fill:#a5d89d; stroke:none;" d="M213 1L214 5L215 5L215 1L213 1z"/>
<path style="fill:#a0a09e; stroke:none;" d="M218 1L218 8L221 1L220 1L220 7L219 7L218 1z"/>
<path style="fill:#a5d89d; stroke:none;" d="M219 1L219 7L220 7L219 1z"/>
<path style="fill:#a0a09e; stroke:none;" d="M222 1L222 9L224 9L224 1L222 1M226 1L226 11L227 11L226 1M230 1L230 13L231 13L230 1M233 1L232 14L236 16L236 1L233 1M238 1L238 16L239 16L238 1z"/>
<path style="fill:#a5d89d; stroke:none;" d="M240 1C240 9.04929 237.362 21.455 248 23L248 1L245 1L245 21L244 21L242 1L240 1z"/>
<path style="fill:#a0a09e; stroke:none;" d="M242 1L244 21L245 21L245 1L242 1z"/>
<path style="fill:#a5d89d; stroke:none;" d="M193 3L194 4L193 3z"/>
<path style="fill:#a0a09e; stroke:none;" d="M194 3L194 4L203 4L194 3z"/>
<path style="fill:#a5d89d; stroke:none;" d="M203 3L204 4L203 3z"/>
<path style="fill:#f2f6f2; stroke:none;" d="M182.667 4.33334L183.333 4.66666L182.667 4.33334M213 4L214 5L213 4z"/>
<path style="fill:#a5d89d; stroke:none;" d="M276 27L246 24C253.216 31.5517 272.616 20.8516 276 32C270.024 32 256.252 29.2155 254 36L255 36L257 33L256 41L257 41L257 38L270 39L270 40L258 40L258 41L270 41L268 43L268 44L271 45L271 55L313 55L313 11L286 10L277.028 11.6034L276 27z"/>
<path style="fill:#a0a09e; stroke:none;" d="M96 12L97 55L103 55L103 56L84 56L84 57L132 57L132 56L125 56L125 55L128 55L128 46L129 46L133 49L135 57L136 57C137.517 49.486 136.434 50.2294 131 46L139 47L141 40L125 42L123 32L143 32L141 39L142 39L147 26L151 26L151 25C144.535 25.2776 125.345 29.8394 121.028 23.5663C118.901 20.476 120 14.5802 120 11L96 12z"/>
<path style="fill:#a5d89d; stroke:none;" d="M68 12L68 13L71 14L68 12z"/>
<path style="fill:#a0a09e; stroke:none;" d="M278 12L277 55L296 55L297 12L278 12z"/>
<path style="fill:#a5d89d; stroke:none;" d="M326 12L326 56L312 56L312 57L325.397 55.9722L327 45L327 13L368 33C360.328 24.7495 337.257 13.4998 326 12z"/>
<path style="fill:#a0a09e; stroke:none;" d="M68 13L68 229L68 280C68 284.385 65.8509 294.897 71 296L70 223L70 90L71 37L70 13L68 13z"/>
<path style="fill:#a5d89d; stroke:none;" d="M233 13L234 14L233 13z"/>
<path style="fill:#a0a09e; stroke:none;" d="M327 13L326 220C334.264 220 354.264 216.28 359 224L325 223L325 226L361 227C358.203 214.22 337.462 219 327 219L327 210L354 213C352.999 205.602 347.035 199.919 345.562 192.83C343.222 181.567 344 169.551 344 158C344 143.031 341.838 124.932 353 113L367.147 83L368 46L366.972 33.554L354.09 26.2901L327 13z"/>
<path style="fill:#a5d89d; stroke:none;" d="M238 16L239 17L238 16z"/>
<path style="fill:#a0a09e; stroke:none;" d="M238 17L239 18L238 17M239 18L240 19L239 18M156 19L157 20L156 19M240 19L241 20L240 19M155 20L156 21L155 20M191 20L189 67L190 67L191 44L192 44C193.622 50.8118 189.844 66.0088 196 70L196 69L196 68L194 45L195 45L195 67L196 67L196 45L197 45L197 71L200 71L200 45L201 45L201 67L202 67L202 45L203 45C203 51.8499 205.242 63.4004 201 69L201 70C207.156 66.0088 203.378 50.8118 205 44L206 44C206 50.8499 203.758 62.4004 208 68L207 21L191 20M241 20L242 21L241 20M153 21L153 23L155 21L153 21z"/>
<path style="fill:#a5d89d; stroke:none;" d="M196 21L196 22L201 22L196 21z"/>
<path style="fill:#a0a09e; stroke:none;" d="M242 21L244 23L244 21L242 21M184 22L184 54C184 58.3936 182.963 63.3828 187 66L187 22L184 22M210 22L210 23C216.286 31.2978 212 54.6259 212 65L210 65L210 44L209 44C209 49.3859 206.03 66.2178 214 65L213 22L210 22z"/>
<path style="fill:#f2f6f2; stroke:none;" d="M121 23L122 24L121 23M147 23L147 24L151 24L147 23z"/>
<path style="fill:#a0a09e; stroke:none;" d="M152 23L153 24L152 23M180 23L176 25L176 42L175 42L175 27L173 27L173 41L170 41L170 30C160.807 35.6138 153.119 48.2167 153 59L157 59L157 58L154 58L154 53L156 53L156 57L157 57L163 52C163.009 54.583 165.815 65.8609 169.397 58.6782C171.657 54.1441 168.911 50.0045 173 46C171.448 51.2494 169.993 60.5852 176 63L177 45L179 45L179 64L182 64C182 53.8189 186.176 31.1514 180 23z"/>
<path style="fill:#a5d89d; stroke:none;" d="M185 23L185 43L186 43L185 23M210 23L210 65L211 65L212 34L210 23z"/>
<path style="fill:#a0a09e; stroke:none;" d="M216 23L217 64L220 64L221 25L216 23M244 23L246 25L246 23L244 23M151 24L152 25L151 24z"/>
<path style="fill:#a5d89d; stroke:none;" d="M180.333 24.6667L180.667 25.3333L180.333 24.6667z"/>
<path style="fill:#a0a09e; stroke:none;" d="M210 24L210 43L211 43L210 24z"/>
<path style="fill:#a5d89d; stroke:none;" d="M216.333 24.6667L216.667 25.3333L216.333 24.6667z"/>
<path style="fill:#a0a09e; stroke:none;" d="M246 25L247 26L246 25z"/>
<path style="fill:#a5d89d; stroke:none;" d="M177 26L177 44C172.263 44.5953 172.552 59.4827 176 62L177 26z"/>
<path style="fill:#f2f6f2; stroke:none;" d="M219 26L220 27L219 26z"/>
<path style="fill:#a0a09e; stroke:none;" d="M247 26L248 27L247 26z"/>
<path style="fill:#a5d89d; stroke:none;" d="M219 27L219 43L220 43L219 27z"/>
<path style="fill:#a0a09e; stroke:none;" d="M222 27L223 63L228 61L227 49L230 50L226 46L225 62L223 62L223 42L238 42L238 41L235 40L227 30L227 41L224 41L224 27L222 27M248 27L248 28L253 36L254 36C257.609 29.456 269.436 32 276 32C274.534 23.2172 255.069 27.2762 248 27z"/>
<path style="fill:#a5d89d; stroke:none;" d="M144 30L144 32L146 30L144 30M251.667 30.3333L252.333 30.6667L251.667 30.3333M123 32L125 42L139 41L139 40L126 40L126 39L139 37L140 37L140 40L141 40L142 37L140 34C134.083 34 128.815 33.1497 124 37L124 33C129.383 33 138.762 31.0048 142 36L143 36L143 32L123 32z"/>
<path style="fill:#f2f6f2; stroke:none;" d="M124 33L124 37L126 34L142 37L142 33L124 33M255 33L255 37L256 37L257 33L255 33M271 33L272 34L271 33z"/>
<path style="fill:#a0a09e; stroke:none;" d="M254.333 36.6667L254.667 37.3333L254.333 36.6667z"/>
<path style="fill:#f2f6f2; stroke:none;" d="M139 37L126 39L126 40L140 41L139 37z"/>
<path style="fill:#a0a09e; stroke:none;" d="M255.333 38.6667L255.667 39.3333L255.333 38.6667z"/>
<path style="fill:#f2f6f2; stroke:none;" d="M257 38L257 41L258 41L270 40L270 39L257 38z"/>
<path style="fill:#a5d89d; stroke:none;" d="M159 42L159 46L167 49L161 48L161 49L168 50L174 43L159 42z"/>
<path style="fill:#464846; stroke:none;" d="M217 41L218 42L217 41z"/>
<path style="fill:#a0a09e; stroke:none;" d="M256 41L258 47L268 47L268 55L269 55L270 41L256 41z"/>
<path style="fill:#f2f6f2; stroke:none;" d="M271.333 41.6667L271.667 42.3333L271.333 41.6667M160 42L161 43L160 42M171 42L172 43L171 42z"/>
<path style="fill:#a5d89d; stroke:none;" d="M216.333 42.6667L216.667 43.3333L216.333 42.6667M223 42L223 45L238 45L238 42L223 42z"/>
<path style="fill:#f2f6f2; stroke:none;" d="M236 42L237 43L236 42M176 43L177 44L176 43z"/>
<path style="fill:#a5d89d; stroke:none;" d="M197 43L198 44L197 43M199 43L200 44L199 43z"/>
<path style="fill:#f2f6f2; stroke:none;" d="M219 43L220 44L219 43z"/>
<path style="fill:#a0a09e; stroke:none;" d="M237 43L240 46L237 43z"/>
<path style="fill:#a5d89d; stroke:none;" d="M127 44L128 45L127 44z"/>
<path style="fill:#f2f6f2; stroke:none;" d="M175 44L176 45L175 44M268 44L269 56L274 56L274 55L271 55L271 44L268 44z"/>
<path style="fill:#a5d89d; stroke:none;" d="M194 45L194 69L195 69L194 45M202 45L201 69C205.036 65.4729 204.003 49.7732 202 45z"/>
<path style="fill:#f2f6f2; stroke:none;" d="M223 45L223 62L224 62L224 46C231.66 47.9101 231.999 53.0515 232 60L233 60L233 49L241 51L239 45L223 45z"/>
<path style="fill:#a5d89d; stroke:none;" d="M268.333 45.6667L268.667 46.3333L268.333 45.6667M128 46L125 55L125 56L134 54L133 49L128 46M224 46L224 62L225 62L226 46L224 46M227 46L228 47L227 46M239 46L241 49L239 46z"/>
<path style="fill:#f2f6f2; stroke:none;" d="M168 47L167 60L169 60L168 47z"/>
<path style="fill:#a0a09e; stroke:none;" d="M240 47L241 48L240 47z"/>
<path style="fill:#a5d89d; stroke:none;" d="M156 48L156 49L160 49L156 48M229 48L230 49L229 48z"/>
<path style="fill:#a0a09e; stroke:none;" d="M241 48L241 52L234 51L231 60L231 61L239 60L238 56L242 57L242 56L238 54L243 53L243 58L244 58L241 48M259 48L260 54L266 52L266 51L260 51L266 49L259 48z"/>
<path style="fill:#a5d89d; stroke:none;" d="M135.667 49.3333L136.333 49.6667L135.667 49.3333z"/>
<path style="fill:#f2f6f2; stroke:none;" d="M156 49L156 52L163 50L156 49M164 49L165 50L164 49z"/>
<path style="fill:#a5d89d; stroke:none;" d="M230 49L232 51L232 49L230 49M233 49L233 60L234 60L235 49L233 49M237.667 49.3333L238.333 49.6667L237.667 49.3333M260 51L266 51C264.053 48.7691 261.947 48.7691 260 51M160 51L161 52L160 51z"/>
<path style="fill:#464846; stroke:none;" d="M163 51L164 52L163 51z"/>
<path style="fill:#a0a09e; stroke:none;" d="M231 51L231 58L232 58L231 51z"/>
<path style="fill:#a5d89d; stroke:none;" d="M235 51L235 52L241 52L235 51z"/>
<path style="fill:#f2f6f2; stroke:none;" d="M132.333 52.6667L132.667 53.3333L132.333 52.6667z"/>
<path style="fill:#a5d89d; stroke:none;" d="M158.667 52.3333L159.333 52.6667L158.667 52.3333M154 53L154 57L155 57L156 53L154 53M238 54L238 55L243 54L238 54z"/>
<path style="fill:#f2f6f2; stroke:none;" d="M131 55L131 56L135 54L131 55M155 54L154 58L155 54M239 54L239 55L243 56L239 54z"/>
<path style="fill:#a5d89d; stroke:none;" d="M70 55L71 56L70 55M241 55L242 56L241 55M268 55L271 57L271 56L268 55M71 56L71 57L84 57L71 56M132 56L132 57L135 57L132 56M242 56L243 57L242 56z"/>
<path style="fill:#a0a09e; stroke:none;" d="M268 56L269 57L268 56M271 56L271 57L312 57C301.25 52.4892 282.696 56 271 56z"/>
<path style="fill:#a5d89d; stroke:none;" d="M156 57L157 58L156 57M231.333 58.6667L231.667 59.3333L231.333 58.6667M166 59L167 60L166 59z"/>
<path style="fill:#f2f6f2; stroke:none;" d="M175 60L176 61L175 60z"/>
<path style="fill:#a5d89d; stroke:none;" d="M180 62L181 63L180 62M185 64L186 65L185 64z"/>
<path style="fill:#f2f6f2; stroke:none;" d="M211 64L212 65L211 64z"/>
<path style="fill:#5db95d; stroke:none;" d="M80 67L80 284L205 284C227.412 284 252.113 287.192 273 277.445C330.268 250.722 316 178.554 316 127C316 108.738 320.168 84.4854 315 67C306.379 69.0524 297.742 66.8005 289 67.0147C271.742 67.4375 254.131 67.9465 237 70.4282C228.158 71.7092 219.445 73.9436 211 76.8372C207.054 78.1892 202.266 81.5488 198 81.0995C185.701 79.8042 172.787 71.5795 160 69.4352C133.872 65.0537 106.425 67 80 67M367 82L365 128L346 128L346 129L362.397 130.603L364 145L364 186L346 186L346 188C350.71 188 357.471 186.766 361.87 188.603C377.067 194.949 373 218.244 373 231L374 231L374 200L378 201L377 231L399 231L398 189C370.164 195.627 376 167.705 376 149L397.397 147.972L399 137L399 106L392 106C392 120.185 388.054 127.509 376 136L376 121L372 121L372 106L370 106L371 122C366.963 119.383 368 114.394 368 110C368 101.729 370.206 89.6394 367 82z"/>
<path style="fill:#a5d89d; stroke:none;" d="M364 88L353 113L345 127L365 128L365.004 100L364 88z"/>
<path style="fill:#464846; stroke:none;" d="M198 133C175.67 79.3802 89.5773 88.2221 83.1736 148C79.6098 181.268 100.688 212.498 135 216.714C141.895 217.561 149.216 217.141 156 215.714C159.08 215.066 163.437 212.505 166.576 213.546C174.727 216.247 183.07 229.936 188.985 236C191.176 238.245 194.518 243.793 198.039 243.793C201.496 243.793 204.812 239.206 206.996 237C213.849 230.08 220.849 218.33 229.715 213.982C234.879 211.449 247.702 218.061 254 217.981C276.5 217.698 297.426 204.832 307.88 185C337.176 129.423 266.842 69.3094 217 108.518C208.617 115.112 202.54 123.464 198 133z"/>
<path style="fill:#a0a09e; stroke:none;" d="M133 107L133 108L153 108C146.866 104.739 139.59 106.167 133 107M244 107L244 108L264 108C257.866 104.739 250.59 106.167 244 107z"/>
<path style="fill:#a5d89d; stroke:none;" d="M368 106C368 110.405 365.849 120.896 371 122L370 106L368 106M372 106L372 121L376 121L376 136C389.517 129.696 392 119.373 392 106L375 106L375 120L373 120L372 106M399 106L399 137L396.682 147.972L376 149C376 167.084 369.946 197.292 398 189L399 231L400 231L400 190L401 190L401 231L416 231C416 217.998 420.654 197.244 409 189L409 199L407 199L404 188L409 188L405 179L396 177L403 178L404 161L396 161L396 160L406 159L417.411 140.621L418 106L414 106L414 143L412 143L412 106L401 106L401 149L400 149C400 136.781 403.71 117.226 399 106z"/>
<path style="fill:#5db95d; stroke:none;" d="M412 106L412 143L414 143L414 106L412 106M418 106L417.411 139.79L406 159L396 160L396 161L404 161L403 178L396 177C398.347 180.319 401.296 179.849 405 179L418.397 199.17L419 231L420 231L420 199L422 199L422 231L423 231L424 200L425 200L426 231L429 231L429 202L435 203L434 231L440 231C440 222.688 435.831 202.852 447 202L447 231L449 231L449 200L452 200L452 231L453 231C453 221.462 449.452 203.801 457 197L456 231L460 231C460 215.199 458.181 201.659 465.897 187.91C467.168 185.646 468.916 177.207 472.079 177.207C479.931 177.207 466.756 195.056 481 191L482 198C489.714 202.254 486 223.019 486 231L487 231L487 200L489 200L489 231L506 231L505.946 203L505.657 193.603L517 192L520.853 203L521 231L522 231L523 200L524 200L525 231L539 231L539.241 200.015L532 178L528 178L525 161L521 162L522 166L517 161C524.103 159.486 526.604 145.156 531.417 140.111C534.179 137.215 538.515 138.274 542 137L541 106L485 109L486 106C481.955 106.867 481.788 114.173 481 118L456 116L457 141C449.089 136.147 453 114.52 453 106L452 106L452 138L449 138L449 106L447 106L446 137C438.478 132.386 442 114.005 442 106L432 106L433 136L427 137L427 106L425 106L425 138L424 138L424 106L421 106L421 140L420 140L420 106L418 106z"/>
<path style="fill:#a5d89d; stroke:none;" d="M420 106L420 140L421 140C421.983 131.056 423.472 114.275 420 106M424 106L424 138L425 138L424 106M427 106L427 134L428 134L427 106M429 106C429 114.043 431.941 129.479 427 136L427 137L433 136L432 106L429 106M442 106C442 113.215 438.413 133.95 446 137L447 106L442 106M449 106L449 138L452 138L452 106L449 106M453 106C453 113.638 449.12 137.832 457 141L456 116L481 118L483 106L481 106L481 115L454 115L453 106M486 106L485 109L488 109L486 106M489 108L522 107C516.419 104.658 493.018 103.402 489 108M541 106L542 137L531.532 139.603L517 161L522 166L521 162L525 161L527 174L532 175L528 175L528 178L532 178L534 191C549.855 187.279 544 220.665 544 231L547 231L547 195L548 195L548 231L549 231L548.397 196.001L537 177L533 178L533 174C537.387 172.544 536.985 169.15 537 165L536 165L536 173C530.387 171.303 530.08 165.859 528 161L538 161L550.397 140.715L551 106L550 106C550 115.019 553.506 133.732 548 141L549 106L544 106L544 138L543 138L543 106L541 106z"/>
<path style="fill:#5db95d; stroke:none;" d="M551 106L550.397 139.83L538 161L528 161C530.112 164.83 532.84 164.951 537 165C536.951 169.161 536.83 171.888 533 174L533 178L537 177L548.397 197L549 231L552 231L552 198L555 199L554 231L556 231L556 200L559 201L558 231L561 231L561 202C570.885 203.576 567 223.253 567 231L573 231L572 203L579 202L579 231L582 231C582 224.006 578.709 204.629 584 200L584 231L586 231L586 198L588 198L588 223L589 223L591.589 197.039L601 183L603 184L604 184L604 183L602 178L607 178C602.425 170.746 601.134 161.217 613 164C606.972 184.392 613.516 210.302 614 231L617 228L625 231L625 165C628.774 165 638.389 166.762 640.397 162.682C642.383 158.646 638.95 151.974 642.603 148.647C650.01 141.9 648.643 161.299 648 164C652.564 161.041 651 153.913 651 149L654 149L654 158C657.987 157.782 660.797 157.326 663 161L654 161L654 163L665 163L665 176L654 175L654 178L655 178L663 177L663 181L660 181L658 185L659 182L654 180L651 190C651 183.442 652.811 176.24 646 173L648 190L642 190L644 173C637.391 176.708 639.545 183.512 638 190L637 190L636 179L633 179L633 187L629 185C627.317 190.695 627.122 200.824 632 205L631 201L635 201C633.805 205.052 633.247 209.348 637 212L637 202L644 203C641.602 211.112 641.487 221.983 650 226L649 203L655 202L655 231L658 231C658 224.006 654.709 204.629 660 200L660 231L662 231L661 199L665 197L665 231L672 231L672.143 193L676 180L681 181L681 180L677 179L677 164L685 161C685 166.768 686.391 173.7 682 178L682 179L686 178L696.397 197L697 231L700 231L699 197C706.548 203.8 703 221.462 703 231L704 231L704 200C710.2 206.072 707 222.71 707 231L709 231L709 202C716.332 206.043 713 223.513 713 231L726 231C726 223.559 722.397 204.612 731 202L731 231L732 231L733 200L734 200L734 231L736 231C736 222.377 732.575 204.292 739 198L738 205L744 205C744 196.475 742.787 189.908 753 190L753 188C746.167 187.919 744.081 185.833 744 179L752 182L754 161L750 160L753 156L753 155L748 150C734.628 139.804 739 121.317 739 106L737 106L737 140L734 140L734 106L733 106L733 138L730 138L730 106L727 106L726 137L725 137L724 106L712 106C712 114.005 715.522 132.386 708 137L707 106L706 106L706 138L704 138L704 106L702 106L702 140L701 140L701 106L699 106C699 122.834 702.636 138.118 689 150L690 152L686 160C663.72 159.921 670 120.902 670 106L666 106L667 143L661 138C653.671 136.99 657 112.167 657 106L655 106L654 137C646.478 132.386 650 114.005 650 106L640 106L640 136L636 137L635 106L632 106C632 113.141 635.388 133.286 630 138L630 106L628 106L629 139L625 141L625 106L619 106C619 122.706 625.97 159.997 602 160L602 156L606 156L606 155L600 155L589.603 139.83L589 106L588 106L588 140L586 140L586 106L584 106L584 138L582 138L582 106L579 106L578 137C571.867 130.504 575 114.553 575 106L565 106C565 114.553 568.133 130.504 562 137L561 106L558 106L558 138L556 138L556 106L554 106L554 140L552 140L551 106z"/>
<path style="fill:#a5d89d; stroke:none;" d="M552 106L552 140L554 140L554 106L552 106M556 106L556 138L558 138L558 106L556 106M561 106L562 137C568.388 132.393 565 113.43 565 106L561 106M575 106C575 113.43 571.612 132.393 578 137L579 106L575 106M582 106L582 138L584 138L584 106L582 106M586 106L586 140L588 140L588 106L586 106M589 106L589.603 140.715L600 155L606 155L606 156L602 156L602 160C606.386 160 611.385 161.033 614 157L607 157L607 155L615 155C622.338 140.929 619 121.582 619 106L592 106L592 141L590 141L589 106M625 106L625 141L629 139L628 106L625 106M630 106L630 138L633 137L632 106L630 106M635 106L636 137L640 136L640 106L635 106M650 106C650 113.215 646.413 133.95 654 137L653 106L650 106M654 106L654 136L655 136L654 106M657 106C657 112.093 653.807 137.623 661 138L667 143L666 106L664 106L664 139L662 139L662 106L659 106L660 137L657 106M670 106C670 118.848 666.382 138.326 672 150L673 150L673 106L670 106M691 106L692 147C703.571 138.993 699 118.735 699 106L698 106L698 141L697 141L697 106L691 106M701 106L701 140L702 140L701 106M704 106L704 138L706 138L706 106L704 106M707 106L707 136L708 136L707 106M710 106L710 136L712 136L712 106L710 106M724 106L725 137L726 137L727 106L724 106M730 106L730 138L733 138L733 106L730 106M734 106L734 140L737 140L737 106L734 106M739 106C739 119.714 733.812 142.634 748 150L748 154L749 154L749 149L753 149L753 106L739 106M764 106L764 136L763.088 146.968L754 150L755 154L749 154L749 155L753 155L753 156L750 156L750 160L754 161L752 164L755 163L754 175L758 175L758 179L753 179L753 166L752 166L752 182L749 181L749 182L753 187L745 187C745 183.292 744.107 180.277 747 181L744 179C744.026 186.323 745.677 187.974 753 188L753 190C742.409 189.67 744 196.195 744 205L765 205L758.209 167L770.701 140.91L771 106L764 106z"/>
<path style="fill:#5db95d; stroke:none;" d="M771 106L770.825 139.7L763.47 149.015L758.174 166L765 205L771 205L771 197C774.401 199.085 774.873 201.098 775 205L776 205L776 200L779 200L779 205L782 202C785.854 202 788.673 202.309 788 205L795 205C795 201.706 799 201.725 799 205L803 205L803 200L804 200L805 205L807 205L807 199L808 199L808 205L810 205C810.1 196.52 815.823 193.809 819.772 187C821.247 184.457 821.443 180.671 823.589 178.603C825.362 176.894 830.533 177.578 831.079 174.83C831.725 171.58 825.745 172.021 824 172L824 106L817 106L812.303 116.004L812 151L810.258 169.397L794 171L794 191L788 190L791 170L791 169L789 166C784.858 166.769 777.099 168.668 773.361 165.972C768.064 162.151 776.996 153.219 780 151L780 157L782 157L782 149L787 163C787 159.259 785.745 152.636 788.028 149.449C794.508 140.403 794.698 161.069 794 164L800 149L800 160C804.534 158.495 803.967 155.121 803 151L807 158L808 158L806 133L805 133L805 138L802 138L800 126L799 137L794 136L790 106L785 106L785 136L780 137L780 106L778 106L778 138L777 138L777 106L774 106L774 140L773 140L773 106L771 106z"/>
<path style="fill:#a5d89d; stroke:none;" d="M773 106L773 140L774 140C774.983 131.056 776.472 114.275 773 106M777 106L777 138L778 138L777 106M780 106C780 112.916 776.726 132.392 782 137L780 106M782 106L782 136L785 136L785 106L782 106M790 106L790 113L791 113L792 106L790 106M793 106L791 113C794.071 121.341 795.666 127.026 794 136L799 137L800 128L799 128L799 136L798 136L798 123L799 123L799 127C803.475 127.585 802 134.423 802 138L805 138L805 133L806 133L808 158L807 158L803 151C803.728 155.185 803.963 157.807 800 160L800 149C795.706 151.784 796.293 158.135 799 162L794 164C794.887 161 795.083 140.188 788.028 148.746C785.559 151.741 787 159.319 787 163L782 149L782 157L780 157L780 151L773 159L782 158L782 161L772 160C769.962 169.796 782.583 167.528 789 166L791 169L791 170L788 190L794 191L794 171L810.821 169.397L812 151L812.303 117.001L817 106L793 106M819 106L819 108L822 108L822 106L819 106M824 106L824 172C836.27 172.4 825.572 175.629 822.988 178.603C820.672 181.269 819.484 186.714 818 190L829 191L829 192L819 192L819 205L825 205L825 195L827 195L827 205L843 205L841 131L836 132L833 127C843.003 126.208 843.022 114.206 843 106L836 106L834 120L839 119L839 125C837.189 125.059 834.278 124.755 833.155 126.603C831.905 128.661 833.421 132.561 832.946 135C830.789 146.072 830.938 159.891 833 171L825 171L825 127L824 106z"/>
<path style="fill:#5db95d; stroke:none;" d="M843 106C843.005 114.213 842.41 125.235 833 127L836 132L841 131L843 205L846 205L847 200L849 200L850 205L868 205L861 181L872 184L865 184L865 185C875.612 185.125 880.992 195.316 881 205L884 205L884 198L885 198L886 205L888 205L888 200L890 200L890 205L893 202L904 205C904 199.605 908.901 204.175 911 205L916 199L915 205L917 205C917.049 200.839 917.17 198.112 921 196L920 177L919 177L918 183L913 183L907 190C907 184.769 908.86 176.151 904 173L905 190L899 190L902 170L902 169L900 166L882 167C882.823 160.432 886.536 155.681 891 151L890 157C893.987 156.146 893 152.511 893 149L895 149C894.996 154.292 893.723 159.247 898 163C898.855 155.224 895.773 146.186 907 148L906 163L922 162L925 205L928 205L928 200L931 205L936 205L936 168L936 154L936 153L932 153L923.318 138.91L923 106L921 106L921 140L920 140L920 106L918 106L918 138L915 137L916 106L912 106L912 137C904.478 132.386 908 114.005 908 106L897 106C897 114.553 900.133 130.504 894 137L893 106L890 106L890 138L888 138L888 106L886 106L886 140L885 140L884 106L883 106C883 123.388 886.117 155.981 861 156L868 133L849 132C856.774 124.72 854 115.863 854 106L852 106L852 117L851 117L851 106L849 106L848 116L846 116L845 106L843 106z"/>
<path style="fill:#a5d89d; stroke:none;" d="M845 106L845 115L846 115L845 106M848 106L848 115L849 115L848 106M851 106L851 117L852 117L851 106M854 106C854 116.383 855.533 123.541 849 132L868 133L861 156C886.693 155.997 883 123.994 883 106L854 106M884 106L885 140L886 140L886 106L884 106M888 106L888 138L890 138L890 106L888 106M893 106L894 137C900.388 132.393 897 113.43 897 106L893 106M908 106C908 113.215 904.413 133.95 912 137L912 106L908 106M916 106C916 112.711 912.668 134.117 918 138L918 106L916 106M920 106L920 140L921 140L920 106M923 106C923 122.143 920.618 135.725 930 149L931 149L931 106L923 106M137.667 107.333L138.333 107.667L137.667 107.333z"/>
<path style="fill:#f2f6f2; stroke:none;" d="M139 107.428C129.941 108.711 121.574 111.123 114 116.44C88.758 134.16 86.9074 173.425 110.001 193.816C122.001 204.411 137.57 207.344 153 204.91C211.913 195.618 197.99 99.0759 139 107.428z"/>
<path style="fill:#a5d89d; stroke:none;" d="M147.667 107.333L148.333 107.667L147.667 107.333M248.667 107.333L249.333 107.667L248.667 107.333z"/>
<path style="fill:#f2f6f2; stroke:none;" d="M250 107.439C241.118 108.809 232.419 111.108 225.039 116.436C199.726 134.711 198.021 174.458 222.004 194.674C234.085 204.858 249.813 207.318 265 204.806C323.377 195.147 308.537 98.4094 250 107.439z"/>
<path style="fill:#a5d89d; stroke:none;" d="M258.667 107.333L259.333 107.667L258.667 107.333z"/>
<path style="fill:#a0a09e; stroke:none;" d="M128 108L128 109L131 109L128 108z"/>
<path style="fill:#a5d89d; stroke:none;" d="M131.667 108.333L132.333 108.667L131.667 108.333M152.667 108.333L153.333 108.667L152.667 108.333z"/>
<path style="fill:#a0a09e; stroke:none;" d="M154 108L154 109L160 110L154 108M237 109L237 110L242 109L237 109z"/>
<path style="fill:#a5d89d; stroke:none;" d="M242 108L242 109L245 109L242 108M263 108L263 109L266 109L263 108z"/>
<path style="fill:#a0a09e; stroke:none;" d="M266 108L266 109L271 110L271 109L266 108M126.667 109.333L127.333 109.667L126.667 109.333z"/>
<path style="fill:#a5d89d; stroke:none;" d="M157 109L158 110L157 109M239 109L240 110L239 109M268 109L269 110L268 109z"/>
<path style="fill:#a0a09e; stroke:none;" d="M123 110L124 111L123 110z"/>
<path style="fill:#a5d89d; stroke:none;" d="M124.667 110.333L125.333 110.667L124.667 110.333M160 110L161 111L160 110z"/>
<path style="fill:#a0a09e; stroke:none;" d="M161 110L161 111L165 112L165 111L161 110M234.667 110.333L235.333 110.667L234.667 110.333z"/>
<path style="fill:#a5d89d; stroke:none;" d="M236 110L237 111L236 110M271 110L272 111L271 110z"/>
<path style="fill:#a0a09e; stroke:none;" d="M272 110L272 111L276 112L276 111L272 110M121.667 111.333L122.333 111.667L121.667 111.333z"/>
<path style="fill:#a5d89d; stroke:none;" d="M162 111L163 112L162 111z"/>
<path style="fill:#a0a09e; stroke:none;" d="M232.667 111.333L233.333 111.667L232.667 111.333z"/>
<path style="fill:#a5d89d; stroke:none;" d="M273 111L274 112L273 111z"/>
<path style="fill:#f2f6f2; stroke:none;" d="M812 111L793 113L793 117L811 118L812 111z"/>
<path style="fill:#a0a09e; stroke:none;" d="M119 112L120 113L119 112z"/>
<path style="fill:#a5d89d; stroke:none;" d="M120 112L121 113L120 112z"/>
<path style="fill:#a0a09e; stroke:none;" d="M165 112L165 113L170 115L170 114L165 112M230 112L231 113L230 112z"/>
<path style="fill:#a5d89d; stroke:none;" d="M231 112L232 113L231 112M276 112L278 114L276 112z"/>
<path style="fill:#a0a09e; stroke:none;" d="M277 112L278 113L277 112M117.667 113.333L118.333 113.667L117.667 113.333z"/>
<path style="fill:#a5d89d; stroke:none;" d="M166 113L167 114L166 113z"/>
<path style="fill:#a0a09e; stroke:none;" d="M228.667 113.333L229.333 113.667L228.667 113.333M278.667 113.333L279.333 113.667L278.667 113.333M114 116L117 115L114 116z"/>
<path style="fill:#a5d89d; stroke:none;" d="M168 114L169 115L168 114z"/>
<path style="fill:#a0a09e; stroke:none;" d="M227 114L228 115L227 114M280 114L281 115L280 114z"/>
<path style="fill:#a5d89d; stroke:none;" d="M115 115L116 116L115 115z"/>
<path style="fill:#a0a09e; stroke:none;" d="M170 115L170 116L174 118L170 115M225 115L226 116L225 115z"/>
<path style="fill:#a5d89d; stroke:none;" d="M226 115L227 116L226 115z"/>
<path style="fill:#a0a09e; stroke:none;" d="M281.667 115.333L282.333 115.667L281.667 115.333z"/>
<path style="fill:#a5d89d; stroke:none;" d="M515 115L505 142C499.146 146.571 502.823 152.921 503 159C507.649 156.486 512.255 149.345 512 144C520.424 139.375 519.401 123.122 517 115L515 115M846.667 115.333L847.333 115.667L846.667 115.333z"/>
<path style="fill:#a0a09e; stroke:none;" d="M110 119L114 117L110 119z"/>
<path style="fill:#a5d89d; stroke:none;" d="M171 116L172 117L171 116z"/>
<path style="fill:#a0a09e; stroke:none;" d="M224 116L225 117L224 116M283 116L284 117L283 116z"/>
<path style="fill:#a5d89d; stroke:none;" d="M112 117L113 118L112 117M172 117L173 118L172 117z"/>
<path style="fill:#a0a09e; stroke:none;" d="M222 117L221 119L222 117z"/>
<path style="fill:#a5d89d; stroke:none;" d="M223 117L224 118L223 117z"/>
<path style="fill:#a0a09e; stroke:none;" d="M284 117L284 118L289 121L284 117z"/>
<path style="fill:#a5d89d; stroke:none;" d="M111 118L112 119L111 118z"/>
<path style="fill:#a0a09e; stroke:none;" d="M174 118L175 119L174 118z"/>
<path style="fill:#a5d89d; stroke:none;" d="M222 118L223 119L222 118M285 118L286 119L285 118z"/>
<path style="fill:#a0a09e; stroke:none;" d="M109 119L110 120L109 119z"/>
<path style="fill:#a5d89d; stroke:none;" d="M175 119L181 125L175 119z"/>
<path style="fill:#a0a09e; stroke:none;" d="M176 119L177 120L176 119M220 119L219 121L220 119z"/>
<path style="fill:#a5d89d; stroke:none;" d="M286 119L287 120L286 119z"/>
<path style="fill:#f2f6f2; stroke:none;" d="M855 119L856 120L855 119z"/>
<path style="fill:#a0a09e; stroke:none;" d="M108 120L109 121L108 120M177 120L178 121L177 120z"/>
<path style="fill:#a5d89d; stroke:none;" d="M220 120L221 121L220 120M287 120L288 121L287 120M459 120C456.421 128.727 455.416 145.019 466 148C466.069 152.711 474.673 168.169 474.887 156.981C475.148 143.4 463.946 132.543 461 120L459 120z"/>
<path style="fill:#f2f6f2; stroke:none;" d="M514.667 120.333L515.333 120.667L514.667 120.333z"/>
<path style="fill:#a0a09e; stroke:none;" d="M107 121L108 122L107 121M178 121L179 122L178 121M218 121L219 122L218 121M289 121L291 123L289 121z"/>
<path style="fill:#f2f6f2; stroke:none;" d="M459 121C459 130.317 455.612 150.508 471 146L459 121z"/>
<path style="fill:#a0a09e; stroke:none;" d="M106 122L107 123L106 122M179 122L180 123L179 122M217 122L218 123L217 122z"/>
<path style="fill:#a5d89d; stroke:none;" d="M289 122L290 123L289 122M832 122L838 124L838 123L832 122z"/>
<path style="fill:#5db95d; stroke:none;" d="M856 122L856 124L877 123L856 122z"/>
<path style="fill:#a0a09e; stroke:none;" d="M105 123L106 124L105 123M180 123L181 124L180 123M216 123L214 127L215 127L216 123M291 123L293 125L291 123z"/>
<path style="fill:#f2f6f2; stroke:none;" d="M798 123L798 136L799 136L798 123z"/>
<path style="fill:#a0a09e; stroke:none;" d="M104 124L105 125L104 124z"/>
<path style="fill:#a5d89d; stroke:none;" d="M216 124L217 125L216 124M291 124L292 125L291 124z"/>
<path style="fill:#a0a09e; stroke:none;" d="M103 125L102 128L103 128L103 125z"/>
<path style="fill:#a5d89d; stroke:none;" d="M148 125L148 126L153 126L148 125z"/>
<path style="fill:#a0a09e; stroke:none;" d="M181 125L182 126L181 125z"/>
<path style="fill:#a5d89d; stroke:none;" d="M215 125L216 126L215 125M246 128L247 128L252 126C249.12 124.902 247.65 125.445 246 128M292 125L293 126L292 125M103 126L104 127L103 126z"/>
<path style="fill:#a0a09e; stroke:none;" d="M148 126L150 129L148 126z"/>
<path style="fill:#464846; stroke:none;" d="M149 126C151.915 136.683 149.985 153.732 134 151.63C128.453 150.901 124.845 146.246 120 144C117.747 151.091 116.39 157.613 118.015 165C119.119 170.016 121.278 174.947 124.529 178.96C148.806 208.925 196.377 173.443 176.046 141.004C173.538 137.002 170.005 133.455 165.996 130.955C161.02 127.852 154.81 126.265 149 126z"/>
<path style="fill:#a0a09e; stroke:none;" d="M154 126L154 127L160 128L154 126M182 126L183 127L182 126M247 126L248 130L249 130L247 126z"/>
<path style="fill:#464846; stroke:none;" d="M248 126C248.752 131.113 250.853 135.875 248.852 141C243.288 155.247 227.914 153.165 220 143C203.121 168.539 233.971 197.975 260 187.522C291.98 174.678 280.725 127.495 248 126z"/>
<path style="fill:#a0a09e; stroke:none;" d="M253 126L253 127L259 128L259 127L253 126z"/>
<path style="fill:#a5d89d; stroke:none;" d="M256 126L257 127L256 126z"/>
<path style="fill:#a0a09e; stroke:none;" d="M293 126L294 127L293 126z"/>
<path style="fill:#f2f6f2; stroke:none;" d="M855 126L854 132C861.485 132 868.694 130.597 869 140L870 140L875 126L855 126z"/>
<path style="fill:#a5d89d; stroke:none;" d="M160.667 127.333L161.333 127.667L160.667 127.333z"/>
<path style="fill:#a0a09e; stroke:none;" d="M183.333 127.667L183.667 128.333L183.333 127.667M213 127L210 132L211 132L213 127z"/>
<path style="fill:#a5d89d; stroke:none;" d="M259 127L260 128L259 127z"/>
<path style="fill:#a0a09e; stroke:none;" d="M294 127L295 130L296 130L294 127z"/>
<path style="fill:#f2f6f2; stroke:none;" d="M511 127L512 128L511 127z"/>
<path style="fill:#a0a09e; stroke:none;" d="M101 128L102 129L101 128z"/>
<path style="fill:#a5d89d; stroke:none;" d="M148 128L149 129L148 128z"/>
<path style="fill:#a0a09e; stroke:none;" d="M161.667 128.333L162.333 128.667L161.667 128.333z"/>
<path style="fill:#a5d89d; stroke:none;" d="M213 128L214 129L213 128z"/>
<path style="fill:#a0a09e; stroke:none;" d="M260 128L260 129L264 130L264 129L260 128z"/>
<path style="fill:#a5d89d; stroke:none;" d="M261 128L262 129L261 128M294 128L295 129L294 128z"/>
<path style="fill:#a0a09e; stroke:none;" d="M100.333 129.667L100.667 130.333L100.333 129.667z"/>
<path style="fill:#a5d89d; stroke:none;" d="M149 129L150 130L149 129z"/>
<path style="fill:#a0a09e; stroke:none;" d="M163 129L163 130L166 131L163 129z"/>
<path style="fill:#a5d89d; stroke:none;" d="M165 129L166 130L165 129z"/>
<path style="fill:#a0a09e; stroke:none;" d="M184 129L185 130L184 129z"/>
<path style="fill:#a5d89d; stroke:none;" d="M212 129L213 130L212 129M361 186L361 185L345.889 182.968L345 171L345 143L346.742 131.603L363 130C363 147.701 366.103 168.768 362 186C366.014 182.492 364 172.06 364 167C364 153.883 370.538 119.865 347.073 129.603C341.275 132.01 344 146.75 344 152C344 159.996 344.14 168.006 343.986 176C343.933 178.759 342.848 183.05 345.473 184.972C348.946 187.516 356.873 186 361 186z"/>
<path style="fill:#a0a09e; stroke:none;" d="M150 130L150 141L151 141L150 130z"/>
<path style="fill:#a5d89d; stroke:none;" d="M166 130L167 131L166 130z"/>
<path style="fill:#a0a09e; stroke:none;" d="M185.333 130.667L185.667 131.333L185.333 130.667z"/>
<path style="fill:#a5d89d; stroke:none;" d="M248.333 130.667L248.667 131.333L248.333 130.667z"/>
<path style="fill:#a0a09e; stroke:none;" d="M264 130L265 131L264 130M296 130L297 131L296 130z"/>
<path style="fill:#f2f6f2; stroke:none;" d="M362 186C366.841 169.624 363 147.099 363 130L346.742 131.028L345 143L345 172L345.773 183.397L362 186z"/>
<path style="fill:#a5d89d; stroke:none;" d="M843 132L844 133L846 130L843 132z"/>
<path style="fill:#f2f6f2; stroke:none;" d="M851.333 130.667L851.667 131.333L851.333 130.667z"/>
<path style="fill:#a0a09e; stroke:none;" d="M99 131L98 134L99 134L99 131M167 131L168 132L167 131z"/>
<path style="fill:#a5d89d; stroke:none;" d="M211 131L212 132L211 131z"/>
<path style="fill:#a0a09e; stroke:none;" d="M265.667 131.333L266.333 131.667L265.667 131.333z"/>
<path style="fill:#a5d89d; stroke:none;" d="M296 131L297 132L296 131z"/>
<path style="fill:#f2f6f2; stroke:none;" d="M509 131L510 132L509 131z"/>
<path style="fill:#a5d89d; stroke:none;" d="M99 132L100 133L99 132z"/>
<path style="fill:#a0a09e; stroke:none;" d="M168 132L172 135L172 134L168 132z"/>
<path style="fill:#a5d89d; stroke:none;" d="M169 132L170 133L169 132z"/>
<path style="fill:#a0a09e; stroke:none;" d="M186 132L187 133L186 132z"/>
<path style="fill:#a5d89d; stroke:none;" d="M210 132L211 133L210 132z"/>
<path style="fill:#a0a09e; stroke:none;" d="M249 132L249 140L250 140L249 132M267 132L268 133L267 132M297 132L298 133L297 132z"/>
<path style="fill:#a5d89d; stroke:none;" d="M150 133L150 139L151 139L150 133M170 133L171 134L170 133M186 133L187 134L186 133z"/>
<path style="fill:#a0a09e; stroke:none;" d="M209.333 133.667L209.667 134.333L209.333 133.667M268 133L272 137L268 133z"/>
<path style="fill:#a5d89d; stroke:none;" d="M269 133L270 134L269 133z"/>
<path style="fill:#a0a09e; stroke:none;" d="M298 133L299 137L300 137L298 133z"/>
<path style="fill:#f2f6f2; stroke:none;" d="M377 133L378 134L377 133z"/>
<path style="fill:#a5d89d; stroke:none;" d="M98 134L99 135L98 134z"/>
<path style="fill:#a0a09e; stroke:none;" d="M187 134L188 137L189 137L187 134z"/>
<path style="fill:#a5d89d; stroke:none;" d="M270 134L271 135L270 134z"/>
<path style="fill:#f2f6f2; stroke:none;" d="M445.333 134.667L445.667 135.333L445.333 134.667M507 134L508 135L507 134M636.333 134.667L636.667 135.333L636.333 134.667z"/>
<path style="fill:#a0a09e; stroke:none;" d="M97 135L98 136L97 135M172 135L175 139L172 135z"/>
<path style="fill:#a5d89d; stroke:none;" d="M187 135L188 136L187 135z"/>
<path style="fill:#a0a09e; stroke:none;" d="M208 135L206 142L207 142L208 135z"/>
<path style="fill:#a5d89d; stroke:none;" d="M271 135L272 136L271 135M298 135L299 136L298 135M97 136L98 137L97 136M173 136L174 137L173 136z"/>
<path style="fill:#f2f6f2; stroke:none;" d="M450 136L451 137L450 136z"/>
<path style="fill:#a5d89d; stroke:none;" d="M708.667 136.333L709.333 136.667L708.667 136.333z"/>
<path style="fill:#f2f6f2; stroke:none;" d="M803 136L804 137L803 136z"/>
<path style="fill:#5db95d; stroke:none;" d="M834 136L834 171L835 171L834 136z"/>
<path style="fill:#a0a09e; stroke:none;" d="M96.3333 137.667L96.6667 138.333L96.3333 137.667z"/>
<path style="fill:#a5d89d; stroke:none;" d="M174 137L175 138L174 137M188.333 137.667L188.667 138.333L188.333 137.667M208 137L209 138L208 137z"/>
<path style="fill:#a0a09e; stroke:none;" d="M272 137L273 138L272 137z"/>
<path style="fill:#a5d89d; stroke:none;" d="M299 137L300 138L299 137z"/>
<path style="fill:#a0a09e; stroke:none;" d="M189 138L191 148L192 148L189 138M273 138L275 141L273 138M300 138L301 142L302 142L300 138z"/>
<path style="fill:#f2f6f2; stroke:none;" d="M454 138L455 139L454 138M506 138L507 139L506 138M515 138L516 139L515 138M542 138C538.605 142.076 535.045 141.996 530 142L530 147L543 148L542 138M627 138L628 139L627 138z"/>
<path style="fill:#a0a09e; stroke:none;" d="M95.3333 139.667L95.6667 140.333L95.3333 139.667M175 139L176 140L175 139z"/>
<path style="fill:#a5d89d; stroke:none;" d="M207 139L208 140L207 139M274 139L275 140L274 139z"/>
<path style="fill:#f2f6f2; stroke:none;" d="M532 139L533 140L532 139M769 139L769 141L771 141L769 139z"/>
<path style="fill:#a5d89d; stroke:none;" d="M176 140L177 141L176 140M189 140L190 141L189 140M248 140L249 141L248 140z"/>
<path style="fill:#f2f6f2; stroke:none;" d="M407 140L405 151C409.889 149.035 408.999 144.64 409 140L407 140M881 140L882 141L881 140z"/>
<path style="fill:#a5d89d; stroke:none;" d="M95.3333 141.667L95.6667 142.333L95.3333 141.667M149 141L150 142L149 141z"/>
<path style="fill:#a0a09e; stroke:none;" d="M176 141L177 142L176 141M248.333 141.667L248.667 142.333L248.333 141.667M275 141L277 144L275 141z"/>
<path style="fill:#f2f6f2; stroke:none;" d="M740.333 141.667L740.667 142.333L740.333 141.667M867 141L869 144L869 141L867 141z"/>
<path style="fill:#a0a09e; stroke:none;" d="M94 142C92.156 156.591 90.4037 176.202 103 187L94.1836 165L94 142M120 142L119 146L120 146L123 145L120 142z"/>
<path style="fill:#a5d89d; stroke:none;" d="M121 142L122 143L121 142z"/>
<path style="fill:#a0a09e; stroke:none;" d="M149 142L148 145L149 142M177 142L178 146L179 146L177 142z"/>
<path style="fill:#a5d89d; stroke:none;" d="M206.333 142.667L206.667 143.333L206.333 142.667z"/>
<path style="fill:#a0a09e; stroke:none;" d="M219 142L221 144L219 142z"/>
<path style="fill:#a5d89d; stroke:none;" d="M220 142L221 143L220 142M276 142L277 143L276 142M301 142L301 145L302 145L301 142z"/>
<path style="fill:#f2f6f2; stroke:none;" d="M592 142L593 143L592 142z"/>
<path style="fill:#a5d89d; stroke:none;" d="M119 143L120 144L119 143M122 143L123 144L122 143M148 143L149 144L148 143M178 143L179 144L178 143z"/>
<path style="fill:#a0a09e; stroke:none;" d="M205 143L205 146L206 146L205 143M218 143L217 148L218 148L218 143M247.333 143.667L247.667 144.333L247.333 143.667z"/>
<path style="fill:#a5d89d; stroke:none;" d="M190.333 144.667L190.667 145.333L190.333 144.667z"/>
<path style="fill:#a0a09e; stroke:none;" d="M221 144L225 149L221 144z"/>
<path style="fill:#a5d89d; stroke:none;" d="M277 144L278 145L277 144z"/>
<path style="fill:#a0a09e; stroke:none;" d="M302 144C303.571 156.434 302.203 166.019 299 178L300 178C303.487 168.647 307.551 153.267 302 144z"/>
<path style="fill:#f2f6f2; stroke:none;" d="M504 144L504 148L505 148L504 144M510 144L509 148L510 144M866 144L866 148L875 148L875 147L866 144z"/>
<path style="fill:#a0a09e; stroke:none;" d="M123 145L124 146L123 145M147 145L148 146L147 145z"/>
<path style="fill:#a5d89d; stroke:none;" d="M217 145L218 146L217 145M222 145L223 146L222 145z"/>
<path style="fill:#a0a09e; stroke:none;" d="M246 145L247 146L246 145M277 145L278 151L279 151L277 145z"/>
<path style="fill:#a5d89d; stroke:none;" d="M94 146L95 147L94 146z"/>
<path style="fill:#a0a09e; stroke:none;" d="M118 146L118 149L119 149L118 146M124 146L125 147L124 146M146 146L145 148L147 148L146 146M179 146L179 149L180 149L179 146z"/>
<path style="fill:#a5d89d; stroke:none;" d="M205.333 146.667L205.667 147.333L205.333 146.667M223 146L224 147L223 146z"/>
<path style="fill:#a0a09e; stroke:none;" d="M245 146L246 147L245 146z"/>
<path style="fill:#a5d89d; stroke:none;" d="M278 146L279 147L278 146z"/>
<path style="fill:#a0a09e; stroke:none;" d="M125 147L126 148L125 147M204 147C204 158.789 203.914 169.075 209 180L210 180L205.184 164L204 147z"/>
<path style="fill:#a5d89d; stroke:none;" d="M224 147L225 148L224 147z"/>
<path style="fill:#a0a09e; stroke:none;" d="M244 147L245 148L244 147z"/>
<path style="fill:#a5d89d; stroke:none;" d="M302.333 147.667L302.667 148.333L302.333 147.667M433 165L417 165L417 173L435 173L434 190L440 191C440 184.289 441.368 175.551 437 170L437 169L457 167C456.72 160.887 454.563 155.078 449 152L448 158L447 158L446 149L445 149C445 154.685 445.48 158.964 441 163C441 160.47 441.061 140.111 434.028 148.743C431.324 152.062 433 160.907 433 165M568.313 147.786C563.551 149.869 565.812 169.492 570.742 167.654C575.549 165.862 576.492 144.21 568.313 147.786z"/>
<path style="fill:#f2f6f2; stroke:none;" d="M597 147L597 148L600 148L597 147z"/>
<path style="fill:#a5d89d; stroke:none;" d="M625 165L625 170L626 170C628.718 168.177 632.766 169 636 169C643.339 169 657.681 163.284 664 168L665 168L665 163L654 163L654 161L663 161C661.452 156.614 658.016 157.528 654 158L654 149L651 149C651 154.346 652.058 160.026 648 164C648.889 160.993 650.606 142.037 642.603 148.043C638.992 150.753 642.03 158.111 640.397 161.852C638.261 166.744 629.301 165 625 165M691 147L674 151L675 156L681 154L681 158L676 157C678.332 160.598 682.013 159.997 686 160L690 152L689 150L691 147M714 154C730.776 153.941 714.442 140.541 714 154z"/>
<path style="fill:#f2f6f2; stroke:none;" d="M746 147L747 148L746 147z"/>
<path style="fill:#a5d89d; stroke:none;" d="M898 163C894.342 158.606 894.999 154.486 895 149L893 149L890 157L891 151C885.67 154.937 882.428 160.344 882 167L900 166L902 169L902 170L899 190L905 190L904 173C908.391 177.3 907 184.232 907 190C910.717 188.512 912.354 186.999 913 183L918 183L919 177L920 177L918 196L918 197L921 197L921 205L925 205L922 162L906 163L907 148C895.641 145.396 898.543 155.117 898 163z"/>
<path style="fill:#a0a09e; stroke:none;" d="M126 148L129 150L129 149L126 148z"/>
<path style="fill:#a5d89d; stroke:none;" d="M127 148L128 149L127 148z"/>
<path style="fill:#a0a09e; stroke:none;" d="M144 148L145 149L144 148z"/>
<path style="fill:#a5d89d; stroke:none;" d="M191.333 148.667L191.667 149.333L191.333 148.667M216 148L217 149L216 148M225 148L226 149L225 148M242 148L243 149L242 148z"/>
<path style="fill:#a0a09e; stroke:none;" d="M243 148L244 149L243 148z"/>
<path style="fill:#f2f6f2; stroke:none;" d="M502 148L503 149L502 148M616 148L615 150L617 150L616 148M864 148L865 149L864 148z"/>
<path style="fill:#a5d89d; stroke:none;" d="M117 149L118 150L117 149z"/>
<path style="fill:#a0a09e; stroke:none;" d="M142.667 149.333L143.333 149.667L142.667 149.333z"/>
<path style="fill:#a5d89d; stroke:none;" d="M180 149L181 150L180 149z"/>
<path style="fill:#a0a09e; stroke:none;" d="M192 149L192 165L193 165L192 149M216 149L216 168L217 168L216 149M226 149L226 150L230 151L230 150L226 149z"/>
<path style="fill:#a5d89d; stroke:none;" d="M227 149L228 150L227 149z"/>
<path style="fill:#a0a09e; stroke:none;" d="M241 149L242 150L241 149z"/>
<path style="fill:#a5d89d; stroke:none;" d="M428 151L426 150L425 156L420 156L418 163L430 164L431 149L428 151M561 149L559 160L560 151C554.236 153.008 551.851 158.468 550 164L565 165L563 149L561 149M577 149L575 165L590 164C588.207 158.643 585.514 153.043 580 151L581 160L579 160L579 149L577 149z"/>
<path style="fill:#f2f6f2; stroke:none;" d="M601 149L601 154L606 154L607 149L601 149z"/>
<path style="fill:#a5d89d; stroke:none;" d="M636 149L633 156L628 156L626 163L638 164L636 159L636 149M710 149L710 156L711 156L710 149M725 149L725 156L727 156L727 149L725 149M911 149L911 162L921 160L912 160L912 159L921 159L915 151L914 158L913 158L911 149M931 149L932 153L936 153L936 149L931 149z"/>
<path style="fill:#a0a09e; stroke:none;" d="M117 150L117 166L118 166L117 150M129.667 150.333L130.333 150.667L129.667 150.333z"/>
<path style="fill:#a5d89d; stroke:none;" d="M131.667 150.333L132.333 150.667L131.667 150.333M138.667 150.333L139.333 150.667L138.667 150.333z"/>
<path style="fill:#a0a09e; stroke:none;" d="M140.667 150.333L141.333 150.667L140.667 150.333M180 150L180 167L181 167L180 150z"/>
<path style="fill:#a5d89d; stroke:none;" d="M230.667 150.333L231.333 150.667L230.667 150.333M236 150L236 151L239 151L236 150z"/>
<path style="fill:#a0a09e; stroke:none;" d="M239.667 150.333L240.333 150.667L239.667 150.333z"/>
<path style="fill:#f2f6f2; stroke:none;" d="M377 150C383.411 161.195 391.751 163.322 403 166L403 162L394 161L394 160L405 158L405 154C401.497 153.945 400.093 153.39 399 150L377 150M429 150L428 162C431.045 159.339 430.478 153.521 429 150M652 150L652 162L653 162L652 150z"/>
<path style="fill:#a5d89d; stroke:none;" d="M673 150L674 151L673 150z"/>
<path style="fill:#f2f6f2; stroke:none;" d="M798 150L799 151L798 150M933.333 150.667L933.667 151.333L933.333 150.667z"/>
<path style="fill:#a0a09e; stroke:none;" d="M132 151L132 152L139 152L132 151z"/>
<path style="fill:#a5d89d; stroke:none;" d="M215 151L216 152L215 151z"/>
<path style="fill:#a0a09e; stroke:none;" d="M231 151L231 152L237 152L231 151z"/>
<path style="fill:#a5d89d; stroke:none;" d="M279 151L280 152L279 151z"/>
<path style="fill:#f2f6f2; stroke:none;" d="M525 151L525 155L526 155L525 151M634 151L634 160L635 160L634 151z"/>
<path style="fill:#a5d89d; stroke:none;" d="M729 151C729.44 156.768 732.888 158.939 738 161L729 151M116.333 152.667L116.667 153.333L116.333 152.667M181.333 152.667L181.667 153.333L181.333 152.667z"/>
<path style="fill:#a0a09e; stroke:none;" d="M279 152L279 165L280 165L279 152z"/>
<path style="fill:#f2f6f2; stroke:none;" d="M426 152L421 159L426 159L426 152M675.333 152.667L675.667 153.333L675.333 152.667M556 153L555 159L558 159L558 153L556 153M582 153L583 159L585 159L582 153z"/>
<path style="fill:#a5d89d; stroke:none;" d="M658 153L660 156L658 153M705 153L701 160C704.25 159.053 705.855 156.292 705 153z"/>
<path style="fill:#f2f6f2; stroke:none;" d="M730 153L733 157L730 153M805 153L805 159L806 159L805 153z"/>
<path style="fill:#a5d89d; stroke:none;" d="M280 154L280 162L281 162L280 154z"/>
<path style="fill:#f2f6f2; stroke:none;" d="M529 154L530 155L529 154M607 155L607 157L614 157L614 155L607 155M676 154L681 158L681 154L676 154z"/>
<path style="fill:#5db95d; stroke:none;" d="M682 154L683 155L682 154z"/>
<path style="fill:#f2f6f2; stroke:none;" d="M758.667 154.333L759.333 154.667L758.667 154.333z"/>
<path style="fill:#a5d89d; stroke:none;" d="M934 154L934 159L936 159L936 154L934 154M93 155L93 158L94 158L93 155z"/>
<path style="fill:#f2f6f2; stroke:none;" d="M470 156L470 160L474 156L470 156z"/>
<path style="fill:#5db95d; stroke:none;" d="M756.667 156.333L757.333 156.667L756.667 156.333z"/>
<path style="fill:#f2f6f2; stroke:none;" d="M531 157L531 158L537 159L531 157M629 157L630 158L629 157M734 157L735 158L734 157M446 159L446 160L455 160L446 159M702 158L703 159L702 158M754 161L758 158L754 161M773 159L773 160L782 161L782 158L773 159z"/>
<path style="fill:#a5d89d; stroke:none;" d="M861 158C861.615 163.343 864.203 163.79 869 165L870 158L861 158z"/>
<path style="fill:#f2f6f2; stroke:none;" d="M885 158L885 161L893 159L885 158M912 159L912 160L921 160L912 159M862 159L863 160L862 159M868 159L869 160L868 159M419 161L420 162L419 161M627 161L628 162L627 161M637 161L638 162L637 161z"/>
<path style="fill:#a5d89d; stroke:none;" d="M677 164L678 175L684 173L684 177L681 181L676 180L672.143 192L672 231L682 231L681 185L688 185L686 178L682 179L682 178C686.86 174.849 685 166.231 685 161L677 164z"/>
<path style="fill:#f2f6f2; stroke:none;" d="M798 161L799 162L798 161z"/>
<path style="fill:#a5d89d; stroke:none;" d="M116.333 162.667L116.667 163.333L116.333 162.667z"/>
<path style="fill:#f2f6f2; stroke:none;" d="M518 162L520 164L520 162L518 162M551 162L551 164L564 164L564 162L551 162M576 162L576 164L589 164L589 162L576 162M678 164L679 167L684 166L684 162L678 164M455 163L442 164L442 166C444.931 166 456.753 167.651 455 163z"/>
<path style="fill:#a5d89d; stroke:none;" d="M607 178L602 178L604 183L604 184L601 183L591.589 196.09L589 223L588 223L588 198L586 198L586 231L614 231L613 222C606.6 222.434 595.18 223.924 590 220L612 221C612 202.994 608.827 181.528 613 164C601.793 160.696 600.727 171.14 607 178z"/>
<path style="fill:#f2f6f2; stroke:none;" d="M753 163L753 179L758 179L758 175L754 175L755 163L753 163M772 163C773.085 168.062 782.693 166 787 166L772 163M883 163L883 166L898 166C895.041 161.436 887.913 163 883 163z"/>
<path style="fill:#a5d89d; stroke:none;" d="M181 164L182 165L181 164M191.333 164.667L191.667 165.333L191.333 164.667z"/>
<path style="fill:#f2f6f2; stroke:none;" d="M604 164L604 175L607 175L608 165L609 165L611 167L612 164L604 164z"/>
<path style="fill:#a5d89d; stroke:none;" d="M215 165L216 166L215 165M279 165L280 166L279 165M302.333 165.667L302.667 166.333L302.333 165.667z"/>
<path style="fill:#f2f6f2; stroke:none;" d="M529 166C530.748 169.788 531.671 172.28 536 173L536 165L529 166z"/>
<path style="fill:#a5d89d; stroke:none;" d="M117 166L118 167L117 166z"/>
<path style="fill:#a0a09e; stroke:none;" d="M191 166L189 175L190 175L191 166z"/>
<path style="fill:#a5d89d; stroke:none;" d="M205 166L206 167L205 166z"/>
<path style="fill:#a0a09e; stroke:none;" d="M278 166L277 171L278 171L278 166z"/>
<path style="fill:#5db95d; stroke:none;" d="M756 166L756 170L757 170L756 166z"/>
<path style="fill:#a5d89d; stroke:none;" d="M94 167L95 168L94 167z"/>
<path style="fill:#a0a09e; stroke:none;" d="M118 167L118 170L119 170L118 167z"/>
<path style="fill:#a5d89d; stroke:none;" d="M180.333 167.667L180.667 168.333L180.333 167.667M190.333 167.667L190.667 168.333L190.333 167.667z"/>
<path style="fill:#a0a09e; stroke:none;" d="M179 168L174 179L175 179L179 168z"/>
<path style="fill:#a5d89d; stroke:none;" d="M206.333 168.667L206.667 169.333L206.333 168.667M216.333 168.667L216.667 169.333L216.333 168.667M301.333 168.667L301.667 169.333L301.333 168.667M95.3333 169.667L95.6667 170.333L95.3333 169.667z"/>
<path style="fill:#a0a09e; stroke:none;" d="M217 169L219 175L220 175L217 169z"/>
<path style="fill:#a5d89d; stroke:none;" d="M278 169L279 170L278 169z"/>
<path style="fill:#a0a09e; stroke:none;" d="M119 170L123 179L124 179L119 170z"/>
<path style="fill:#a5d89d; stroke:none;" d="M179 170L180 171L179 170M569 170C567.546 173.021 563.972 190.364 570 190.364C576.028 190.364 572.454 173.021 571 170L569 170M641 174L644 173L642 190L648 190L646 173C652.236 177.286 651 183.089 651 190C654.598 187.668 653.997 183.987 654 180L659 182L658 185L660 181L663 181L663 177L654 178L654 175L655 175L665 176L665 171C657.813 175.492 645.497 166.438 641 174M217 171L218 172L217 171M277 171L278 172L277 171M119 172L120 173L119 172M189 172L190 173L189 172z"/>
<path style="fill:#a0a09e; stroke:none;" d="M276 172L274 177L275 177L276 172z"/>
<path style="fill:#a5d89d; stroke:none;" d="M440 173L440 175C445.473 178.762 445 182.808 445 189L446 189L446 181L449 181L449 186C454.188 183.283 456.433 177.644 457 172L440 173M494 173L506 184L508 173L494 173z"/>
<path style="fill:#f2f6f2; stroke:none;" d="M528 175L532 175C530.42 172.854 529.538 172.83 528 175z"/>
<path style="fill:#a5d89d; stroke:none;" d="M771 172L773 181L779 185L778 181L782 181L783 190L785 190L786 177L785 177L785 189L784 189L784 175L788 175L788 173L771 172M862 172L861 179L870 179L869 172L862 172M882 172C882.604 178.018 885.295 182.27 890 186L889 182L894 181L894 190C897.356 187.825 899.803 174.78 897 172L898 175L896 189L895 189C895 179.371 894.73 172.533 883 176L882 172z"/>
<path style="fill:#f2f6f2; stroke:none;" d="M883 172L883 176C894.331 173.304 895 179.338 895 189L896 189L898 173L883 172z"/>
<path style="fill:#a5d89d; stroke:none;" d="M178 173L179 174L178 173M207 173L208 174L207 173M218 173L219 174L218 173M276 173L277 174L276 173M300 173L301 174L300 173z"/>
<path style="fill:#f2f6f2; stroke:none;" d="M402 173L390 174L390 175L403 177L402 173M442 175L456 175C453.245 171.847 444.755 171.847 442 175z"/>
<path style="fill:#a5d89d; stroke:none;" d="M551 173C550.717 176.08 550.97 177.144 554 178C553.162 182.543 554.936 184.995 559 187L558 178C561.825 180.48 561 184.808 561 189L563 189L564 173L551 173M577 189L579 189L579 178L581 178L581 187C585.064 184.995 586.838 182.543 586 178C587.656 177.531 590.702 176 588.306 173.884C586.983 172.717 584.614 173.011 583 173C572.403 172.926 577 180.896 577 189z"/>
<path style="fill:#f2f6f2; stroke:none;" d="M678 175L679 179L684 177L684 173L678 175M772 175L787 174C783.12 172.372 774.931 171.646 772 175z"/>
<path style="fill:#a5d89d; stroke:none;" d="M795 174L798 190L799 190L802 178L801 187C805.414 185.364 807.439 182.751 807 178C810.054 177.346 809.936 175.993 810 173L795 174M120 174L121 175L120 174M177 174L178 175L177 174M188.333 174.667L188.667 175.333L188.333 174.667M299.333 174.667L299.667 175.333L299.333 174.667M510 174L510 179L511 179L511 177L512 177L510 180L510 181L515 181L515 177L510 174z"/>
<path style="fill:#f2f6f2; stroke:none;" d="M576 174L589 176L589 175L576 174z"/>
<path style="fill:#a5d89d; stroke:none;" d="M640 174L641 175L640 174M697 174L699 176L699 174L697 174z"/>
<path style="fill:#f2f6f2; stroke:none;" d="M796 175L796 176L809 177L809 174L796 175M908 174L908 189L909 189L908 174z"/>
<path style="fill:#a5d89d; stroke:none;" d="M208 175L209 176L208 175z"/>
<path style="fill:#a0a09e; stroke:none;" d="M220 175L222 178L220 175z"/>
<path style="fill:#a5d89d; stroke:none;" d="M275 175L276 176L275 175M427 188L427 179L428 179L429 190C430.295 188.29 430.788 187.201 430.946 184.981C431.116 182.589 431.569 178.62 429.972 176.603C425.129 170.488 415.059 176.557 422.645 184.656C423.971 186.071 425.377 186.978 427 188z"/>
<path style="fill:#f2f6f2; stroke:none;" d="M510 175L511 176L510 175M551 175L551 176L564 176L551 175z"/>
<path style="fill:#a5d89d; stroke:none;" d="M638 175L633 178L633 179L636 179L637 190L638 190L640 175L638 175z"/>
<path style="fill:#f2f6f2; stroke:none;" d="M784 175L784 189L785 189L784 175z"/>
<path style="fill:#a5d89d; stroke:none;" d="M97 176L98 177L97 176M121 176L122 177L121 176M176 176L177 177L176 176z"/>
<path style="fill:#a0a09e; stroke:none;" d="M188 176L185 183L186 183L188 176z"/>
<path style="fill:#a5d89d; stroke:none;" d="M463 191L463 192L470 191C472.694 194.736 476.721 194 481 194L481 199L485 199L485 198L482 198L481 191C467.428 193.801 480.372 179.28 472.791 176.752C469.276 175.579 465.233 188.548 463 191z"/>
<path style="fill:#f2f6f2; stroke:none;" d="M652 176L652 189L653 189L652 176z"/>
<path style="fill:#a5d89d; stroke:none;" d="M677 176L679 179L677 176z"/>
<path style="fill:#f2f6f2; stroke:none;" d="M911 176L911 187L912 187L912 182L917 182L917 176L911 176z"/>
<path style="fill:#a5d89d; stroke:none;" d="M122 177L123 178L122 177M175 177L176 178L175 177M187 177L188 178L187 177z"/>
<path style="fill:#a0a09e; stroke:none;" d="M273 177C261.596 188.308 251.482 191.002 236 188L236 189C246.166 191.63 271.121 191.811 273 177z"/>
<path style="fill:#f2f6f2; stroke:none;" d="M511 177L510 180L511 177z"/>
<path style="fill:#a5d89d; stroke:none;" d="M708 187C704.204 171.331 695.217 182.642 708 187M740 177C738.869 180.951 738.964 183.377 743 185L740 177z"/>
<path style="fill:#f2f6f2; stroke:none;" d="M862 177L863 178L862 177M868 177L869 178L868 177z"/>
<path style="fill:#a5d89d; stroke:none;" d="M98 178L99 179L98 178M209 178L210 179L209 178z"/>
<path style="fill:#a0a09e; stroke:none;" d="M222 178L227 183L222 178z"/>
<path style="fill:#a5d89d; stroke:none;" d="M273 178L274 179L273 178z"/>
<path style="fill:#a0a09e; stroke:none;" d="M298.333 178.667L298.667 179.333L298.333 178.667z"/>
<path style="fill:#f2f6f2; stroke:none;" d="M453.333 178.667L453.667 179.333L453.333 178.667M701 178L706 185L706 180L701 178M885 178L885 180L892 180L892 178L885 178z"/>
<path style="fill:#a0a09e; stroke:none;" d="M124 179L125 180L124 179M173 179L174 180L173 179z"/>
<path style="fill:#a5d89d; stroke:none;" d="M186 179L187 180L186 179M222 179L223 180L222 179M272 179L273 180L272 179z"/>
<path style="fill:#f2f6f2; stroke:none;" d="M421 180L426 186C425.868 181.985 425.505 179.312 421 180M447 179L448 180L447 179M470 179L470 182L474 182L474 179L470 179z"/>
<path style="fill:#a5d89d; stroke:none;" d="M631 179L630 186L633 187L631 179M727 179L725 189L724 189L724 181L723 181L724 190L729 188L729 179L727 179z"/>
<path style="fill:#f2f6f2; stroke:none;" d="M774 179L775 180L774 179M823 179C823.854 182.987 827.49 182 831 182L830 179L823 179z"/>
<path style="fill:#a5d89d; stroke:none;" d="M99 180L100 181L99 180z"/>
<path style="fill:#a0a09e; stroke:none;" d="M125 180L126 181L125 180M172 180L173 181L172 180z"/>
<path style="fill:#a5d89d; stroke:none;" d="M210 180L211 181L210 180M223 180L224 181L223 180M297 180L296 182L297 180z"/>
<path style="fill:#f2f6f2; stroke:none;" d="M534 180L535 181L534 180M536.333 180.667L536.667 181.333L536.333 180.667z"/>
<path style="fill:#a5d89d; stroke:none;" d="M628 180L631 183L628 180z"/>
<path style="fill:#f2f6f2; stroke:none;" d="M745 180L745 187L753 187C751.715 182.834 748.956 181.476 745 180M804 180L805 181L804 180z"/>
<path style="fill:#a0a09e; stroke:none;" d="M126 181L127 182L126 181M171 181L172 182L171 181z"/>
<path style="fill:#a5d89d; stroke:none;" d="M185 181L186 182L185 181z"/>
<path style="fill:#5db95d; stroke:none;" d="M198 181L193 192L203 191L198 181z"/>
<path style="fill:#a0a09e; stroke:none;" d="M210 181L211 182L210 181z"/>
<path style="fill:#a5d89d; stroke:none;" d="M224 181L225 182L224 181M270 181L271 182L270 181z"/>
<path style="fill:#a0a09e; stroke:none;" d="M297 181L298 182L297 181z"/>
<path style="fill:#f2f6f2; stroke:none;" d="M399 181L405 184L405 181L399 181z"/>
<path style="fill:#a5d89d; stroke:none;" d="M709 181L709 189L711 189L711 181L709 181M722 191L722 182C712.248 179.223 711.683 190.878 722 191z"/>
<path style="fill:#f2f6f2; stroke:none;" d="M724 181L724 189L725 189L724 181z"/>
<path style="fill:#a5d89d; stroke:none;" d="M861 181C864.278 186.071 867.114 187.381 873 186L873 185L865 185L865 184L872 184C869.52 180.175 865.192 181 861 181M100 182L101 183L100 182z"/>
<path style="fill:#a0a09e; stroke:none;" d="M127 182L128 183L127 182M170 182L171 183L170 182M211.333 182.667L211.667 183.333L211.333 182.667z"/>
<path style="fill:#a5d89d; stroke:none;" d="M225 182L226 183L225 182z"/>
<path style="fill:#a0a09e; stroke:none;" d="M296 182L292 189L296 182z"/>
<path style="fill:#5db95d; stroke:none;" d="M628 182L630 184L630 182L628 182z"/>
<path style="fill:#f2f6f2; stroke:none;" d="M759 182L760 183L759 182M804 182L805 183L804 182z"/>
<path style="fill:#a0a09e; stroke:none;" d="M128 183L128 184C143.252 192.365 154.748 192.365 170 184L170 183C151.776 189.632 146.224 189.632 128 183z"/>
<path style="fill:#a5d89d; stroke:none;" d="M184 183L183 185L184 183z"/>
<path style="fill:#a0a09e; stroke:none;" d="M227 183L227 184L231 186L231 185L227 183z"/>
<path style="fill:#a5d89d; stroke:none;" d="M268 183L269 184L268 183M295 183L296 184L295 183M628 183L628 186L630 185L630 184L628 183M129 184L130 185L129 184M168 184L169 185L168 184z"/>
<path style="fill:#a0a09e; stroke:none;" d="M184 184L185 185L184 184M212 184L213 185L212 184z"/>
<path style="fill:#a5d89d; stroke:none;" d="M227 184L228 185L227 184M267 184L268 185L267 184M294 184L295 185L294 184z"/>
<path style="fill:#f2f6f2; stroke:none;" d="M803 184L804 185L803 184z"/>
<path style="fill:#a5d89d; stroke:none;" d="M102 185L103 186L102 185M130 185L131 186L130 185M167 185L168 186L167 185z"/>
<path style="fill:#a0a09e; stroke:none;" d="M183 185L181 189L183 185M213 185L216 189L213 185z"/>
<path style="fill:#a5d89d; stroke:none;" d="M229 185L230 186L229 185z"/>
<path style="fill:#f2f6f2; stroke:none;" d="M378.333 185.667L378.667 186.333L378.333 185.667z"/>
<path style="fill:#5db95d; stroke:none;" d="M380 185L381 186L380 185z"/>
<path style="fill:#f2f6f2; stroke:none;" d="M601 185L600 195L597 193L597 192L600 190C594.975 191.428 596.997 197.683 597 202L598 202L603 194L605 185L601 185z"/>
<path style="fill:#5db95d; stroke:none;" d="M679.333 185.667L679.667 186.333L679.333 185.667z"/>
<path style="fill:#a5d89d; stroke:none;" d="M688 185C688.064 187.993 687.946 189.346 691 190L691 189L688 185M131.667 186.333L132.333 186.667L131.667 186.333M165.667 186.333L166.333 186.667L165.667 186.333M182 186L183 187L182 186M214 186L215 187L214 186M230 186L230 187L233 188L230 186z"/>
<path style="fill:#a0a09e; stroke:none;" d="M232 186L233 187L232 186z"/>
<path style="fill:#a5d89d; stroke:none;" d="M264 186L265 187L264 186M293 186L294 187L293 186M627 186L627 198L628 198L627 186M863 186L864 187L863 186M873 186C873.263 189.41 873.679 190.901 877 192L877 191L873 186z"/>
<path style="fill:#a0a09e; stroke:none;" d="M103 187L104 188L103 187z"/>
<path style="fill:#a5d89d; stroke:none;" d="M181 187L182 188L181 187M215 187L216 188L215 187z"/>
<path style="fill:#a0a09e; stroke:none;" d="M233.667 187.333L234.333 187.667L233.667 187.333z"/>
<path style="fill:#a5d89d; stroke:none;" d="M262 187L263 188L262 187M292 187L293 188L292 187z"/>
<path style="fill:#f2f6f2; stroke:none;" d="M637.333 187.667L637.667 188.333L637.333 187.667z"/>
<path style="fill:#a5d89d; stroke:none;" d="M104 188L111 195L104 188M136 188L137 189L136 188M161 188L162 189L161 188M234.667 188.333L235.333 188.667L234.667 188.333M260 188L261 189L260 188M354 213L327 210C327.8 220.031 349.381 216 357 216L354 205L346 191L364 190L367 243L321 243L318 252L317 252L317 250L316 250L316 255L368 255L368 231L373 231C373 222.653 376.271 205.405 371.411 198.424C365.888 190.491 362.551 187.935 353 188.001C350.241 188.02 346.152 187.645 345.372 191.109C343.954 197.402 352.537 206.695 354 213z"/>
<path style="fill:#f2f6f2; stroke:none;" d="M404 188L407 199L409 199C409.109 193.559 410.859 188.547 404 188z"/>
<path style="fill:#a5d89d; stroke:none;" d="M863 188L863 190L865 190L863 188z"/>
<path style="fill:#a0a09e; stroke:none;" d="M104 189L105 190L104 189z"/>
<path style="fill:#a5d89d; stroke:none;" d="M138 189L139 190L138 189M159 189L160 190L159 189M179 189L180 190L179 189z"/>
<path style="fill:#a0a09e; stroke:none;" d="M180 189L181 190L180 189M216 189L217 190L216 189z"/>
<path style="fill:#a5d89d; stroke:none;" d="M236.667 189.333L237.333 189.667L236.667 189.333M258 189L259 190L258 189z"/>
<path style="fill:#a0a09e; stroke:none;" d="M291 189L292 190L291 189z"/>
<path style="fill:#f2f6f2; stroke:none;" d="M762 189L763 190L762 189z"/>
<path style="fill:#a0a09e; stroke:none;" d="M105 190L106 191L105 190z"/>
<path style="fill:#a5d89d; stroke:none;" d="M143 190L144 191L143 190M154 190L155 191L154 190z"/>
<path style="fill:#a0a09e; stroke:none;" d="M179 190L180 191L179 190z"/>
<path style="fill:#a5d89d; stroke:none;" d="M217 190L218 191L217 190M241.667 190.333L242.333 190.667L241.667 190.333M252.667 190.333L253.333 190.667L252.667 190.333z"/>
<path style="fill:#a0a09e; stroke:none;" d="M290 190L291 191L290 190z"/>
<path style="fill:#f2f6f2; stroke:none;" d="M346 191L354 205L357 216L327 215L327 219C338.344 219 358.958 213.993 362 228L325 228L325 229L364 229L364 235L366 235C366 220.535 368.329 203.874 364 190L346 191z"/>
<path style="fill:#a5d89d; stroke:none;" d="M691 190L691 192L693 192L691 190z"/>
<path style="fill:#f2f6f2; stroke:none;" d="M746.333 190.667L746.667 191.333L746.333 190.667z"/>
<path style="fill:#a5d89d; stroke:none;" d="M817 190C812.412 195.047 810.025 198.041 810 205L818 205L817 190z"/>
<path style="fill:#a0a09e; stroke:none;" d="M106 191L107 192L106 191z"/>
<path style="fill:#a5d89d; stroke:none;" d="M146 191L146 192L152 192L146 191z"/>
<path style="fill:#a0a09e; stroke:none;" d="M178 191L179 192L178 191M217 191L222 195L222 194L217 191z"/>
<path style="fill:#a5d89d; stroke:none;" d="M244 191L244 192L251 192L244 191z"/>
<path style="fill:#a0a09e; stroke:none;" d="M289 191L288 193L290 193L289 191z"/>
<path style="fill:#a5d89d; stroke:none;" d="M535 191L538 195L535 191z"/>
<path style="fill:#a0a09e; stroke:none;" d="M107 192L108 193L107 192M177 192L178 193L177 192z"/>
<path style="fill:#a5d89d; stroke:none;" d="M219 192L220 193L219 192M462 192L463 193L462 192M504 198L505 198L518 197L517 192C511.03 192 504.583 190.519 504 198M693 192L692 231L695 231C695 221.879 699.068 198.675 693 192M877 192L880 195L877 192z"/>
<path style="fill:#a0a09e; stroke:none;" d="M108 193L109 194L108 193M176 193L177 194L176 193M287 193L288 194L287 193z"/>
<path style="fill:#a5d89d; stroke:none;" d="M461 193L462 194L461 193z"/>
<path style="fill:#f2f6f2; stroke:none;" d="M827.667 193.333L828.333 193.667L827.667 193.333z"/>
<path style="fill:#a5d89d; stroke:none;" d="M864 193L865 194L864 193z"/>
<path style="fill:#a0a09e; stroke:none;" d="M109 194L110 195L109 194z"/>
<path style="fill:#a5d89d; stroke:none;" d="M174 194L173 196L174 194z"/>
<path style="fill:#a0a09e; stroke:none;" d="M175 194L176 195L175 194z"/>
<path style="fill:#a5d89d; stroke:none;" d="M285 194L286 195L285 194z"/>
<path style="fill:#a0a09e; stroke:none;" d="M286 194L287 195L286 194z"/>
<path style="fill:#a5d89d; stroke:none;" d="M460 194L460 231L461 231C461 220.351 464.111 203.798 460 194z"/>
<path style="fill:#f2f6f2; stroke:none;" d="M506 194L507 195L506 194M515 194L516 195L515 194M545 194L546 195L545 194z"/>
<path style="fill:#a5d89d; stroke:none;" d="M865 194L866 195L865 194z"/>
<path style="fill:#a0a09e; stroke:none;" d="M110.667 195.333L111.333 195.667L110.667 195.333M174 195L175 196L174 195M222 195L223 196L222 195M285 195L286 196L285 195z"/>
<path style="fill:#a5d89d; stroke:none;" d="M472 195L472 198L480 197L472 195M538 195L538 198L539 198L538 195M696 195L697 196L696 195M866 195L866 198L867 198L866 195M880 195L880 205L881 205L880 195z"/>
<path style="fill:#a0a09e; stroke:none;" d="M112 196C118.743 204.137 130.832 206.916 141 207L141 206C129.885 205.771 121.468 201.25 112 196z"/>
<path style="fill:#a5d89d; stroke:none;" d="M113 196L114 197L113 196z"/>
<path style="fill:#a0a09e; stroke:none;" d="M172.667 196.333L173.333 196.667L172.667 196.333M223 196L228 200L228 199L223 196z"/>
<path style="fill:#a5d89d; stroke:none;" d="M224 196L225 197L224 196z"/>
<path style="fill:#a0a09e; stroke:none;" d="M282 198L285 196L282 198z"/>
<path style="fill:#f2f6f2; stroke:none;" d="M592 196L592 215L593 215L592 196z"/>
<path style="fill:#5db95d; stroke:none;" d="M829 196L830 197L829 196z"/>
<path style="fill:#a5d89d; stroke:none;" d="M114 197L115 198L114 197z"/>
<path style="fill:#a0a09e; stroke:none;" d="M171 197L172 198L171 197z"/>
<path style="fill:#a5d89d; stroke:none;" d="M225 197L226 198L225 197M418 197L418 231L419 231L418 197M456 197C451.752 204.948 455 221.852 455 231L456 231L456 197M518 197L519 198L518 197M664 197L661 199L662 231L665 231L664 197M696 197L696 231L697 231L696 197M699 197L700 231L701 231C701 223.726 704.57 201.512 699 197M771 197L771 205L773 205L773 199L774 199L774 205C775.564 201.243 774.818 198.535 771 197M917 197L917 205L918 205L917 197M116 198L117 199L116 198z"/>
<path style="fill:#a0a09e; stroke:none;" d="M165 201L165 202L171 199L165 201M191 199L191 200C197.175 199.64 220.22 200.881 217.056 211.985C214.692 220.284 203.661 225.148 200 233L185 221C187.668 224.787 193.014 232.488 197.999 233.079C202.857 233.655 220.57 214.737 219.824 210.015C218.066 198.894 199.058 197.987 191 199z"/>
<path style="fill:#a5d89d; stroke:none;" d="M227 198L228 199L227 198M280 198L281 199L280 198z"/>
<path style="fill:#a0a09e; stroke:none;" d="M281 198L282 199L281 198z"/>
<path style="fill:#a5d89d; stroke:none;" d="M505 198L506 231L507 231C507 223.789 510.47 202.78 505 198M519 198L520 199L519 198M539 198L540 199L539 198M552 198L552 231L554 231L554 198L552 198M628 198L629 199L628 198M737 198L736 205L738 205L739 198L737 198z"/>
<path style="fill:#f2f6f2; stroke:none;" d="M811 198L812 199L811 198z"/>
<path style="fill:#a5d89d; stroke:none;" d="M867 198L868 205L869 205L867 198M884 198L884 205L886 205L884 198M117 199L118 200L117 199M167 199L168 200L167 199M195 199L195 200L198 200L195 199M228 199L229 200L228 199M278 199L279 200L278 199z"/>
<path style="fill:#a0a09e; stroke:none;" d="M279.667 199.333L280.333 199.667L279.667 199.333z"/>
<path style="fill:#f2f6f2; stroke:none;" d="M371.333 199.667L371.667 200.333L371.333 199.667z"/>
<path style="fill:#a5d89d; stroke:none;" d="M420 199L420 231L422 231L422 199L420 199M453 199L453 231L454 231L453 199M485 199L485 231L486 231L485 199M520 199L520 231L521 231L520 199M540 199L539 231L541 231L540 199M629 199L629 205L630 205L629 199z"/>
<path style="fill:#f2f6f2; stroke:none;" d="M662.333 199.667L662.667 200.333L662.333 199.667z"/>
<path style="fill:#a5d89d; stroke:none;" d="M702 199L702 231L703 231L702 199M807 199L807 205L808 205L807 199M912 200L914 205L915 205L916 199L912 200M119 200L120 201L119 200M165 200L166 201L165 200z"/>
<path style="fill:#a0a09e; stroke:none;" d="M186 201L186 202L190 201L186 201z"/>
<path style="fill:#a5d89d; stroke:none;" d="M190 200L190 201L193 201L190 200z"/>
<path style="fill:#f2f6f2; stroke:none;" d="M177 212L199 233C202.716 227.112 218.895 216.677 217.353 209.325C216.586 205.669 211.287 203.704 208.285 202.423C197.297 197.732 182.102 200.206 177 212z"/>
<path style="fill:#a5d89d; stroke:none;" d="M199 200L199 201L203 201L199 200z"/>
<path style="fill:#a0a09e; stroke:none;" d="M229 200L232 202L229 200M276 202L279 200L276 202z"/>
<path style="fill:#a5d89d; stroke:none;" d="M374 200L374 231L377 231L378 201L374 200M424 200L423 231L426 231C426 222.761 429.055 206.672 424 200M449 200L449 231L450 231L450 201L451 201L451 231L452 231L452 200L449 200M487 200L487 231L489 231L489 200L487 200M523 200L522 231L525 231C525 222.761 528.055 206.672 523 200M556 200L556 231L558 231L558 200L556 200M582 200L582 231L584 231L584 200L582 200M631 201L630 205L630 206L633 207L635 211L635 201L631 201M658 200L658 231L660 231L660 200L658 200M704 200L704 231L707 231L706 200L704 200M733 200L732 231L734 231L733 200M776 200L776 205L777 205L777 201L778 201L778 205L779 205L779 200L776 200M803 200L803 205L805 205L803 200M847 200L846 205L850 205L849 200L847 200M888 200L888 205L890 205L890 200L888 200M928 200L928 205L931 205L930 200L928 200M121.667 201.333L122.333 201.667L121.667 201.333M163.667 201.333L164.333 201.667L163.667 201.333M207 201L211 203L211 202L207 201M232.667 201.333L233.333 201.667L232.667 201.333M274.667 201.333L275.333 201.667L274.667 201.333z"/>
<path style="fill:#f2f6f2; stroke:none;" d="M375.333 201.667L375.667 202.333L375.333 201.667M632 201L633 202L632 201M705 201L706 202L705 201z"/>
<path style="fill:#a5d89d; stroke:none;" d="M911 201L913 205L911 201z"/>
<path style="fill:#f2f6f2; stroke:none;" d="M929 201L930 202L929 201z"/>
<path style="fill:#a5d89d; stroke:none;" d="M123 202L124 203L123 202M161 202L162 203L161 202z"/>
<path style="fill:#a0a09e; stroke:none;" d="M162.667 202.333L163.333 202.667L162.667 202.333M184 202L180 206L185 203L184 202z"/>
<path style="fill:#a5d89d; stroke:none;" d="M185 202L186 203L185 202M200 202L200 228C204.209 225.886 216.869 214.322 214.957 209.311C212.789 203.631 205.024 202.974 200 202z"/>
<path style="fill:#a0a09e; stroke:none;" d="M233 202L233 203L237 204L237 203L233 202M271 203L271 204L275 203L271 203z"/>
<path style="fill:#a5d89d; stroke:none;" d="M429 202L429 231L434 231L435 203L429 202M440 231L444 231L444 203L446 203L446 231L447 231L447 202C435.651 202.373 440 222.532 440 231M561 202L561 231L562 231L562 203L563 203L563 231L567 231C567 223.35 571.011 202.78 561 202M572 203L573 231L577 231L577 203L578 203L578 231L579 231L579 202L572 203M637 202L635 212L635 213L643 221L644 203L637 202M649 203L650 226L647 225L655 231L655 202L649 203M709 202L709 231L713 231C713 224.283 716.38 204.449 709 202M726 231L729 231L729 203L730 203L730 231L731 231L731 202C722.332 203.447 726 223.962 726 231M782 202L782 203L789 204L782 202M794 204L800 204L794 204M893 202L893 205L898 205L893 202M903 204L909 205L909 202L903 204M126.667 203.333L127.333 203.667L126.667 203.333M156 205L159 204L156 205z"/>
<path style="fill:#a0a09e; stroke:none;" d="M159 203L159 204L162 204L159 203z"/>
<path style="fill:#a5d89d; stroke:none;" d="M184 203L185 204L184 203M211 203L212 204L211 203M237.667 203.333L238.333 203.667L237.667 203.333M269.667 203.333L270.333 203.667L269.667 203.333z"/>
<path style="fill:#f2f6f2; stroke:none;" d="M430 203L431 204L430 203M597 203L598 204L597 203M638 203L638 213L639 213L638 203M653 203L654 204L653 203M710 203L711 204L710 203M894 203L895 204L894 203M907 203L908 204L907 203z"/>
<path style="fill:#a5d89d; stroke:none;" d="M129 204L130 205L129 204z"/>
<path style="fill:#a0a09e; stroke:none;" d="M157.667 204.333L158.333 204.667L157.667 204.333z"/>
<path style="fill:#a5d89d; stroke:none;" d="M182 204L183 205L182 204M212.667 204.333L213.333 204.667L212.667 204.333z"/>
<path style="fill:#a0a09e; stroke:none;" d="M238 204L238 205L252 207L252 206L238 204z"/>
<path style="fill:#a5d89d; stroke:none;" d="M240 204L241 205L240 204M267 204L268 205L267 204z"/>
<path style="fill:#a0a09e; stroke:none;" d="M268.667 204.333L269.333 204.667L268.667 204.333z"/>
<path style="fill:#a5d89d; stroke:none;" d="M134 205L134 206L137 206L134 205M148 205L148 206L151 206L148 205z"/>
<path style="fill:#a0a09e; stroke:none;" d="M145 206L145 207L157 206L145 206z"/>
<path style="fill:#a5d89d; stroke:none;" d="M181 205L182 206L181 205M214 205L215 206L214 205M246 205L246 206L249 206L246 205M259 205L259 206L262 206L259 205z"/>
<path style="fill:#a0a09e; stroke:none;" d="M256 206L256 207L268 206L256 206z"/>
<path style="fill:#a5d89d; stroke:none;" d="M141 206L141 207L145 207L141 206z"/>
<path style="fill:#a0a09e; stroke:none;" d="M179 206L176 212L177 212L179 206z"/>
<path style="fill:#a5d89d; stroke:none;" d="M252 206L252 207L256 207L252 206M179 207L180 208L179 207M216 207L217 208L216 207M178 208L179 209L178 208M177 209L178 210L177 209M218.333 210.667L218.667 211.333L218.333 210.667z"/>
<path style="fill:#5db95d; stroke:none;" d="M166 212L167 213L166 212z"/>
<path style="fill:#a0a09e; stroke:none;" d="M177 212L179 214L177 212z"/>
<path style="fill:#a5d89d; stroke:none;" d="M178 212L179 213L178 212M217 212L218 213L217 212M166 213L165 215L167 215L166 213M216 213L217 214L216 213z"/>
<path style="fill:#a0a09e; stroke:none;" d="M179 214L180 215L179 214z"/>
<path style="fill:#a5d89d; stroke:none;" d="M161 217L165 216L161 217M167.333 215.667L167.667 216.333L167.333 215.667z"/>
<path style="fill:#a0a09e; stroke:none;" d="M180 215L181 216L180 215z"/>
<path style="fill:#a5d89d; stroke:none;" d="M214.333 215.667L214.667 216.333L214.333 215.667z"/>
<path style="fill:#a0a09e; stroke:none;" d="M181 216L182 217L181 216z"/>
<path style="fill:#a5d89d; stroke:none;" d="M154 217L154 218L160 218L154 217M169 217L170 218L169 217z"/>
<path style="fill:#a0a09e; stroke:none;" d="M182 217L183 218L182 217M183.333 218.667L183.667 219.333L183.333 218.667z"/>
<path style="fill:#a5d89d; stroke:none;" d="M212 218L213 219L212 218M151 219L151 220L154 220L151 219M171 219L172 220L171 219M184 219L185 220L184 219M358 219L359 220L358 219M185 220L186 221L185 220M209 220L209 222L211 220L209 220z"/>
<path style="fill:#f2f6f2; stroke:none;" d="M590 220C593.506 224.012 606.847 222.567 612 222L612 221L590 220z"/>
<path style="fill:#a5d89d; stroke:none;" d="M172 221L172 222L174 224L175 224L172 221M186 221L187 222L186 221M360 221L360 225L361 225L360 221M643 221L644 222L643 221M187 222L188 223L187 222M207 222L207 224L209 222L207 222M644 222L645 223L644 222M188 223L189 224L188 223M645 223L646 224L645 223M143 224L144 225L143 224M176 224L176 227L177 227L176 224M189 224L190 225L189 224M206 224L207 225L206 224M646 224L647 225L646 224M190 225L191 226L190 225M361 225C352.077 229.408 331.654 220.386 325 228C334.197 227.277 343.757 228 353 228C355.602 228 362.544 229.094 361 225M140.667 226.333L141.333 226.667L140.667 226.333M178 226L192 243L193 243L178 226M191 226L192 227L191 226M204 226L205 227L204 226M192 227L193 228L192 227z"/>
<path style="fill:#a0a09e; stroke:none;" d="M324 227C325.56 231.701 329.633 230.998 334 231L363 231L363 232L323 231L323 236L365 236L365 235L364 231C352.832 227.699 332.729 235.333 324 227z"/>
<path style="fill:#a5d89d; stroke:none;" d="M138 228L139 229L138 228M193 228L194 229L193 228M202 228L203 229L202 228M617 228L620 231L619 228L617 228M194 229L195 230L194 229M200 229L200 231L202 229L200 229M325 229L325 230L364 231L353 229L325 229M199 232L200 233L199 232M363 232L363 235L364 235L363 232M132 233L133 234L132 233M324 233L325 234L324 233M130 235L131 236L130 235z"/>
<path style="fill:#f2f6f2; stroke:none;" d="M366 235L366 240L367 240L366 235z"/>
<path style="fill:#a0a09e; stroke:none;" d="M321 237L318 247L319 247L320 243L367 243L365 237L321 237z"/>
<path style="fill:#a5d89d; stroke:none;" d="M194 243L197 247L194 243z"/>
<path style="fill:#5db95d; stroke:none;" d="M195 243L195 245L197 245L195 243z"/>
<path style="fill:#f2f6f2; stroke:none;" d="M320 243L320 245L322 245L320 243M365 244L366 245L365 244z"/>
<path style="fill:#a5d89d; stroke:none;" d="M121 245L122 246L121 245M119 247L120 248L119 247z"/>
<path style="fill:#a0a09e; stroke:none;" d="M317 247L316 250L317 247z"/>
<path style="fill:#f2f6f2; stroke:none;" d="M317.333 250.667L317.667 251.333L317.333 250.667z"/>
<path style="fill:#a0a09e; stroke:none;" d="M315 251L304.564 267.001L304 296L309 296C309 288.101 305.479 269.582 309.465 262.879C311.835 258.892 320.16 260 324 260L368 260L368 255L316 255L315 251z"/>
<path style="fill:#a5d89d; stroke:none;" d="M116 252L117 253L116 252z"/>
<path style="fill:#f2f6f2; stroke:none;" d="M317 253L318 254L317 253z"/>
<path style="fill:#a5d89d; stroke:none;" d="M114.333 255.667L114.667 256.333L114.333 255.667M313 256L314 257L313 256M112.333 258.667L112.667 259.333L112.333 258.667M309 261L309 296C315.383 296 324.69 297.776 329 292C333.74 291.784 340.107 288.882 343 285C348.198 284.764 365.15 277.727 367.397 272.736C368.979 269.22 368 263.789 368 260L309 261z"/>
<path style="fill:#f2f6f2; stroke:none;" d="M310 261L311 262L310 261z"/>
<path style="fill:#a5d89d; stroke:none;" d="M107.333 269.667L107.667 270.333L107.333 269.667z"/>
<path style="fill:#a0a09e; stroke:none;" d="M293 296L294 296L293 277L295 296L299 296L300 272C289.951 275.909 293 286.985 293 296z"/>
<path style="fill:#a5d89d; stroke:none;" d="M105.333 274.667L105.667 275.333L105.333 274.667M293 277L294 296L295 296C295 290.909 297.022 280.514 293 277M103 279C104.186 284.537 120.05 282 125 282L197 282L197 281L131 281C122.527 281 110.573 283.212 103 279z"/>
<path style="fill:#a0a09e; stroke:none;" d="M289 279L287 296L290 296L289 279M282 283L284 296L285 296L285 282L282 283z"/>
<path style="fill:#a5d89d; stroke:none;" d="M282 284L283 296L284 296L282 284z"/>
<path style="fill:#f2f6f2; stroke:none;" d="M283 284L284 285L283 284z"/>
<path style="fill:#a0a09e; stroke:none;" d="M278 288L274 287L274 296L275 296L275 288L278 296L279 296L279 286L280 286L280 296L281 296L281 285L278 288M282 285L282 296L283 296L282 285z"/>
<path style="fill:#a5d89d; stroke:none;" d="M279 286L279 296L280 296L279 286z"/>
<path style="fill:#a0a09e; stroke:none;" d="M270 288L269 296L272 296L270 288z"/>
<path style="fill:#a5d89d; stroke:none;" d="M275 288L275 296L277 296L277 288L275 288z"/>
<path style="fill:#464846; stroke:none;" d="M277 289L277 296L278 296L277 289z"/>
<path style="fill:#a0a09e; stroke:none;" d="M264 290L264 296L266 296L266 290L264 290M255 293L259 296L261 293L255 293M248.667 293.333L249.333 293.667L248.667 293.333z"/>
<path style="fill:#f2f6f2; stroke:none;" d="M259 293L260 294L259 293z"/>
<path style="fill:#a5d89d; stroke:none;" d="M260 293L259 296L260 293M71 294L71 295L190 295L249 295L232 294L196 294L71 294z"/>
<path style="fill:#a0a09e; stroke:none;" d="M250.333 294.667L250.667 295.333L250.333 294.667z"/>
</svg>
